<svg xmlns="http://www.w3.org/2000/svg" width="513" height="257" fill="none" viewBox="0 0 513 257">
  <defs>
    <linearGradient id="mainlogo__a" x1="277.066" x2="297.504" y1="32.68" y2="179.271" class="mainlogo__a" gradientUnits="userSpaceOnUse">
      <stop offset=".385" stop-color="#FFE600"/>
      <stop offset=".78" stop-color="#FF2A2A"/>
    </linearGradient>
    <linearGradient id="mainlogo__b" x1="277.066" x2="297.504" y1="32.68" y2="179.271" class="mainlogo__b" gradientUnits="userSpaceOnUse">
      <stop offset=".385" stop-color="#FFE600"/>
      <stop offset=".78" stop-color="#FF2A2A"/>
    </linearGradient>
    <linearGradient id="mainlogo__c" x1="277.066" x2="297.504" y1="32.68" y2="179.271" class="mainlogo__c" gradientUnits="userSpaceOnUse">
      <stop offset=".385" stop-color="#FFE600"/>
      <stop offset=".78" stop-color="#FF2A2A"/>
    </linearGradient>
    <linearGradient id="mainlogo__d" x1="277.066" x2="297.504" y1="32.68" y2="179.271" class="mainlogo__d" gradientUnits="userSpaceOnUse">
      <stop offset=".385" stop-color="#FFE600"/>
      <stop offset=".78" stop-color="#FF2A2A"/>
    </linearGradient>
    <linearGradient id="mainlogo__e" x1="284.643" x2="309.413" y1="64.425" y2="229.512" class="mainlogo__e" gradientUnits="userSpaceOnUse">
      <stop offset=".119" stop-color="#fff"/>
      <stop offset=".244" stop-color="#fff" stop-opacity="0"/>
    </linearGradient>
    <linearGradient id="mainlogo__f" x1="254.914" x2="275.351" y1="36.246" y2="182.837" class="mainlogo__f" gradientUnits="userSpaceOnUse">
      <stop offset=".385" stop-color="#FFE600"/>
      <stop offset=".78" stop-color="#FF2A2A"/>
    </linearGradient>
    <linearGradient id="mainlogo__g" x1="254.914" x2="275.351" y1="36.246" y2="182.837" class="mainlogo__g" gradientUnits="userSpaceOnUse">
      <stop offset=".385" stop-color="#FFE600"/>
      <stop offset=".78" stop-color="#FF2A2A"/>
    </linearGradient>
    <linearGradient id="mainlogo__h" x1="254.914" x2="275.351" y1="36.246" y2="182.837" class="mainlogo__h" gradientUnits="userSpaceOnUse">
      <stop offset=".385" stop-color="#FFE600"/>
      <stop offset=".78" stop-color="#FF2A2A"/>
    </linearGradient>
    <linearGradient id="mainlogo__i" x1="262.491" x2="287.261" y1="67.992" y2="233.078" class="mainlogo__i" gradientUnits="userSpaceOnUse">
      <stop offset=".119" stop-color="#fff"/>
      <stop offset=".244" stop-color="#fff" stop-opacity="0"/>
    </linearGradient>
    <linearGradient id="mainlogo__j" x1="225.375" x2="245.812" y1="6.875" y2="153.466" class="mainlogo__j" gradientUnits="userSpaceOnUse">
      <stop offset=".385" stop-color="#FFE600"/>
      <stop offset=".78" stop-color="#FF2A2A"/>
    </linearGradient>
    <linearGradient id="mainlogo__k" x1="225.375" x2="245.812" y1="6.875" y2="153.466" class="mainlogo__k" gradientUnits="userSpaceOnUse">
      <stop offset=".385" stop-color="#FFE600"/>
      <stop offset=".78" stop-color="#FF2A2A"/>
    </linearGradient>
    <linearGradient id="mainlogo__l" x1="232.951" x2="257.722" y1="38.62" y2="203.707" class="mainlogo__l" gradientUnits="userSpaceOnUse">
      <stop offset=".119" stop-color="#fff"/>
      <stop offset=".244" stop-color="#fff" stop-opacity="0"/>
    </linearGradient>
  </defs>
  <g class="mainlogo__mainlogo">
    <path fill="#7A0D00" fill-rule="evenodd" d="M505.728 22.63v42.244l-.002-.003v.003c0 1.362-.193 1.389-.963 2.08l.001.002c-.385.832-10.216 11.558-10.602 12.196l-.001-.001-.002.001.002.002c-.771.887-1.35 1.163-2.121 1.271l-.001-.001-19.277 2.708.001.002v37.376l-.001-.002-17.927 2.522v-.003l-.002.001v.003l-6.614-11.455-11.302 13.192.001.001s-.771.887-1.735 1.022h-.002l.001.001-22.94 3.224c-1.156.163-2.313-.648-2.313-.648l-.003-.003-.002-.003.003.006c-.065-.06-10.22-9.274-11.18-10.109l-.001-.002c-.194-.103-.323-.216-.408-.364l-9.097-15.756.009.014-.006-.012c-.169-.293-.17-.726-.17-1.501V22.186l17.928-2.519 9.097 15.756-.001 58.69 5.554-.78V17.605v.002l18.12-2.546.002.003v-.003l6.284 10.885c2.004-1.925 10.504-11.328 11.825-12.846l-.001-.001c.193-.417.578-.86 1.734-1.023l37.013-5.202.002.004v-.004l9.097 15.756Zm-89.63 88.517 11.042-1.552.002-.001-11.044 1.553Zm32.772-79.983 6.156 10.662c0 .584-.193 1.39-.193 1.78v62.387h.002V43.605c0-.39.192-1.196.192-1.78L448.87 31.16v.004Zm23.893 13.232v3.209l5.746-.808v-3.21l-5.746.809Zm-4.051-16.564h.001l27.918-3.924-27.919 3.924Z" class="mainlogo__Union" clip-rule="evenodd"/>
    <path fill="#000" d="M496.776.002a4.437 4.437 0 0 1 .256.011c.042.002.084.004.126.008.037.002.073.007.11.01l.161.016.056.008c.299.037.594.094.884.17l.064.016c.055.015.111.033.166.049.028.009.057.016.085.024l.138.046.113.04c.056.02.113.04.169.062l.036.014a6.866 6.866 0 0 1 3.445 2.962l9.097 15.755a6.882 6.882 0 0 1 .921 3.439v42.243l-.002.085c.001.72-.005 2.627-1.041 4.515a8.37 8.37 0 0 1-1.568 2.021c-.022.022-.047.042-.069.063-.131.168-.264.337-.391.492-.367.449-.834.995-1.338 1.577a435.8 435.8 0 0 1-3.599 4.075c-1.293 1.45-2.549 2.854-3.523 3.952-.486.55-.877.994-1.15 1.312-.114.133-.191.225-.238.281l-.08.105-.07.088a5.807 5.807 0 0 1-.165.2l-.02.026c-.697.802-1.611 1.683-2.83 2.382a9.705 9.705 0 0 1-3.524 1.187c-.026.004-.052.005-.078.008l-13.279 1.866v31.401a6.877 6.877 0 0 1-6.006 6.82l-17.758 2.496a6.874 6.874 0 0 1-6.998-3.356l-1.758-3.043-4.981 5.815-.031.038-.687-.597-.002.003.687.597-.003.003-.015.018-.022.024a10.467 10.467 0 0 1-.164.181 10.86 10.86 0 0 1-1.323 1.19c-.697.532-2.138 1.501-4.142 1.853a9.742 9.742 0 0 1-.298.05l-22.94 3.224c-2.34.329-4.264-.336-5.21-.733-.544-.228-.99-.466-1.312-.653-.126-.073-.237-.143-.334-.204l-.028-.016-.059-.036-.154-.102-.011-.008-.101-.069-.002-.002v-.001l-.003-.002v.001l-.044-.032a7.275 7.275 0 0 1-.625-.501l-.009-.008c-.117-.106-8.927-8.096-10.791-9.76a7.674 7.674 0 0 1-2.133-2.368v-.001l-9.097-15.754.001-.001h-.001c-.031-.054-.059-.109-.088-.163l-.007-.012.001-.001a.067.067 0 0 1-.007-.011l-.054-.101-.047-.095a7.718 7.718 0 0 1-.109-.225l-.02-.042a8.362 8.362 0 0 1-.71-2.754c-.053-.611-.047-1.262-.047-1.534V22.188a6.877 6.877 0 0 1 5.919-6.81l17.928-2.52a6.876 6.876 0 0 1 6.912 3.372l1.819 3.149v-1.772a6.877 6.877 0 0 1 5.963-6.815l18.077-2.54.01-.001.128-.015.129-.015.138-.012.124-.01.137-.007.144-.004.066-.001h.158l.179.003.045.003c.134.006.267.015.399.029l.05.005a6.923 6.923 0 0 1 .924.167l.035.008c.068.018.137.036.205.056l.036.01c.285.085.565.189.837.31.013.005.027.01.04.017.06.027.12.056.18.085l.044.021c.051.025.1.05.15.077l.098.052a6.862 6.862 0 0 1 2.658 2.595l1.649 2.856a604.47 604.47 0 0 0 4.946-5.476 8.283 8.283 0 0 1 2.151-2.166c1.392-.963 2.884-1.388 4.181-1.57h.002L495.67.066l.016-.002.093-.01c.056-.007.113-.015.169-.02.042-.005.083-.007.124-.01.052-.005.104-.01.156-.012a6.4 6.4 0 0 1 .548-.01Zm-.146 6.879-.003-.005-37.013 5.202c-1.155.163-1.541.606-1.734 1.023h.001c-1.32 1.52-9.821 10.922-11.825 12.847l-6.284-10.886v.003l-.001-.002-18.12 2.546-.001-.002v75.726l-5.554.78.001-58.69L407 19.669l-17.928 2.52v78.451c0 .775.001 1.209.17 1.502l.006.01-.009-.012 9.097 15.756a.973.973 0 0 0 .408.364v.001c.959.833 11.08 10.016 11.181 10.108l-.003-.005.003.003.002.003s1.157.81 2.313.648l22.94-3.224-.001-.001h.002c.964-.135 1.735-1.022 1.735-1.022l-.001-.001 11.303-13.192 6.613 11.455v-.004h.002v.002l17.928-2.52.001.001V83.135l-.001-.002 19.276-2.708.001.002c.771-.109 1.35-.385 2.121-1.272l-.002-.002.002-.002.001.002c.388-.64 10.217-11.364 10.603-12.197h-.001c.77-.692.963-.72.963-2.081v-.004l.001.004V22.632L496.63 6.876v.005Zm-69.492 102.715-11.042 1.552 11.044-1.553-.002.001Zm-43.569-3.568.015.022-.018-.028.003.006Zm71.456-64.202c0 .584-.192 1.39-.192 1.78v62.388h-.002V43.606c0-.389.193-1.195.193-1.779l-6.156-10.662v-.004l6.157 10.665Zm23.482 4.972-5.745.807v-3.208l5.745-.808v3.209Z" class="mainlogo__Union mainlogo__(Stroke)"/>
    <path fill="#fff" d="M14.09 256.422a9.233 9.233 0 0 0 3.536-1.302 9.709 9.709 0 0 0 2.827-2.558l-2.106-1.866a7.106 7.106 0 0 1-1.884 1.787 5.676 5.676 0 0 1-2.284.85 4.71 4.71 0 0 1-1.948-.104 4.2 4.2 0 0 1-1.655-.884 4.148 4.148 0 0 1-1.062-1.495 5.013 5.013 0 0 1-.387-2.004 6.037 6.037 0 0 1 .377-2.134 6.134 6.134 0 0 1 1.042-1.802c.45-.536.99-.987 1.585-1.326a5.372 5.372 0 0 1 1.962-.678 4.78 4.78 0 0 1 2.343.228 4.667 4.667 0 0 1 1.93 1.351l2.172-2.536a6.308 6.308 0 0 0-2.837-1.797 7.95 7.95 0 0 0-3.611-.31 9.138 9.138 0 0 0-3.249 1.101 10.045 10.045 0 0 0-2.626 2.118 9.763 9.763 0 0 0-1.752 2.879 9.4 9.4 0 0 0-.643 3.36 8.042 8.042 0 0 0 .632 3.183 6.567 6.567 0 0 0 1.74 2.377 6.855 6.855 0 0 0 2.628 1.379c1.038.288 2.15.35 3.27.183Zm42.017-5.881a9.073 9.073 0 0 0 3.237-1.099 9.844 9.844 0 0 0 4.346-5.014 9.243 9.243 0 0 0 .643-3.345 7.884 7.884 0 0 0-.643-3.163 6.716 6.716 0 0 0-1.744-2.402 6.615 6.615 0 0 0-2.602-1.391c-2.07-.567-4.384-.242-6.453.907a9.842 9.842 0 0 0-4.346 5.014 9.25 9.25 0 0 0-.643 3.345 7.89 7.89 0 0 0 .643 3.163 6.717 6.717 0 0 0 1.743 2.402 6.615 6.615 0 0 0 2.603 1.391 7.7 7.7 0 0 0 3.216.192Zm0-3.059a4.422 4.422 0 0 1-1.898-.117 3.97 3.97 0 0 1-1.594-.898 4.284 4.284 0 0 1-1.03-1.522c-.504-1.265-.504-2.745 0-4.151a6.252 6.252 0 0 1 1.03-1.801 5.874 5.874 0 0 1 1.594-1.346 5.194 5.194 0 0 1 1.898-.65c.67-.1 1.335-.056 1.951.128.589.173 1.12.473 1.563.884.443.417.793.93 1.03 1.51.503 1.265.503 2.745 0 4.151a6.209 6.209 0 0 1-1.03 1.812 5.759 5.759 0 0 1-1.563 1.324 5.298 5.298 0 0 1-1.951.676Zm48.735-4.043v-2.943l-8.493 1.194v-13.155l-3.213.452v16.095l11.706-1.643Zm40.532-5.696V234.8l-8.493 1.193v-13.154l-3.215.451v16.096l11.708-1.643Zm40.842-5.74v-2.897l-8.802 1.237v-3.819l5.743-.807v-2.806l-5.743.807v-3.675l8.714-1.225v-2.897l-11.931 1.676v16.096l12.019-1.69Zm35.654-4.782a9.204 9.204 0 0 0 3.537-1.302 9.72 9.72 0 0 0 2.827-2.558l-2.108-1.865a7.1 7.1 0 0 1-1.884 1.788 5.66 5.66 0 0 1-2.284.849 4.705 4.705 0 0 1-1.947-.103 4.2 4.2 0 0 1-1.655-.885 4.128 4.128 0 0 1-1.062-1.495 5.02 5.02 0 0 1-.388-2.003 6.019 6.019 0 0 1 .378-2.134 6.117 6.117 0 0 1 1.041-1.802c.451-.537.99-.988 1.585-1.327a5.395 5.395 0 0 1 1.962-.678 4.8 4.8 0 0 1 2.351.232 4.673 4.673 0 0 1 1.929 1.351l2.173-2.536a6.305 6.305 0 0 0-2.838-1.797 7.958 7.958 0 0 0-3.609-.31 9.14 9.14 0 0 0-3.249 1.101 10.027 10.027 0 0 0-2.628 2.117 9.745 9.745 0 0 0-1.752 2.879 9.393 9.393 0 0 0-.643 3.36 8.041 8.041 0 0 0 .632 3.183 6.576 6.576 0 0 0 1.74 2.377 6.87 6.87 0 0 0 2.628 1.379 7.882 7.882 0 0 0 3.264.179Zm42.528-6.206V207.86l5.209-.732v-2.944l-13.658 1.92v2.944l5.233-.736v13.153l3.216-.45Zm36.828-5.176v-16.095l-3.215.451v16.096l3.215-.452Zm37.029-4.951a9.05 9.05 0 0 0 3.237-1.098 9.715 9.715 0 0 0 2.603-2.123 9.865 9.865 0 0 0 1.744-2.892 9.24 9.24 0 0 0 .642-3.344 7.885 7.885 0 0 0-.642-3.163 6.716 6.716 0 0 0-1.744-2.402 6.605 6.605 0 0 0-2.603-1.391c-2.069-.567-4.382-.242-6.451.907a9.86 9.86 0 0 0-4.346 5.014 9.24 9.24 0 0 0-.643 3.344 7.89 7.89 0 0 0 .643 3.164 6.729 6.729 0 0 0 1.744 2.4 6.616 6.616 0 0 0 2.602 1.392 7.676 7.676 0 0 0 3.214.19v.002Zm0-3.058c-.667.1-1.327.056-1.939-.13a3.912 3.912 0 0 1-1.552-.885 4.268 4.268 0 0 1-1.032-1.522c-.503-1.266-.503-2.745 0-4.152a6.234 6.234 0 0 1 1.032-1.8 5.78 5.78 0 0 1 1.552-1.322 5.214 5.214 0 0 1 1.939-.675 4.508 4.508 0 0 1 1.951.129c.588.172 1.12.473 1.563.884a4.28 4.28 0 0 1 1.031 1.51c.504 1.265.504 2.745 0 4.151a6.175 6.175 0 0 1-1.031 1.812 5.795 5.795 0 0 1-1.563 1.324 5.298 5.298 0 0 1-1.951.674v.002Zm40.066-2.825v-10.766l7.915 9.654 2.838-.399v-16.096l-3.015.424v10.417l-7.716-9.332-3.061.43v16.095l3.039-.427Z" class="mainlogo__Vector"/>
    <path fill="#7A0D00" fill-rule="evenodd" d="M389.076 72.767v92.468l-.001-.002-16.771 2.358-9.097-15.756v-15.746l-3.433 9.708-.004-.007.003.006-9.097-15.755-2.854-7.643v48.633h-.003l.001.001-16.771 2.358-5.252-9.097v9.639l-48.966 6.882-9.096-15.756v-54.13c-.171.908-.334 1.799-.489 2.673a207.145 207.145 0 0 0-1.191 7.485l-.001.002-17.771 2.497-.004-.005.004.005-.22-.317-.001-.001-.468-.678-.016-.024.015.026-.219-.318-9.094-15.751-.003-.006c.779-3.253 1.774-6.711 2.984-10.375a367.735 367.735 0 0 1 3.893-11.157l-.001-.001c1.47-3.787 2.897-7.35 4.281-10.688l9.097 15.756a491.056 491.056 0 0 0-3.187 7.89l1.079-2.714a455.25 455.25 0 0 1 2.108-5.176l-9.097-15.756 13.88-1.95L267.735 80v-7.993l9.096 15.756v76.015l.001-76.016 39.868-5.603-39.869 5.604-9.096-15.758 48.964-6.88h.001l5.252 9.095v-9.053l9.097 15.755v75.433l.001-.001V80.921l13.281-1.868-13.282 1.867-9.097-15.756 15.807-2.222.006.01-.004-.01 9.097 15.756 5.11 12.53 12.202-31.994 15.807-2.222.002.002v-.002l9.097 15.755Zm-94.315 29.605.001.002v3.014l15.385-2.161 9.097 15.756h-.003.002v18.685l.001.002-.001.002-24.482 3.439.001.002v2.82l21.94-3.083 5.25 9.093V98.552l-27.191 3.82Zm53.061 11.428 4.417 11.826-4.417-11.828v.002Zm-100.438 8.429h.001v-.002l-.001-.002v.004Zm.034-.142v.002-.004.002Z" class="mainlogo__Union" clip-rule="evenodd"/>
    <path fill="#000" d="M380.108 50.139a7.029 7.029 0 0 1 .293.012c.022 0 .043.002.065.003.085.006.17.014.254.023.035.004.069.01.104.013.051.007.103.012.154.02l.198.033.027.004c.072.013.144.029.216.044l.027.006a7.466 7.466 0 0 1 .273.065l.148.04a5.242 5.242 0 0 1 .247.076l.063.022c.199.067.394.143.585.228l.04.017c.056.025.112.052.167.078l.068.033.157.081.055.03a6.859 6.859 0 0 1 2.456 2.243l-.001.001c.078.119.156.239.228.363l9.097 15.756a6.883 6.883 0 0 1 .921 3.439v92.467a6.878 6.878 0 0 1-6.018 6.821l-16.674 2.344a6.874 6.874 0 0 1-6.912-3.371l-9.097-15.756a6.88 6.88 0 0 1-.921-3.438v-.086l-.191-.114-.028-.019a4.751 4.751 0 0 1-.118-.076l-.103-.068a7.314 7.314 0 0 1-.491-.369l-.044-.037a6.724 6.724 0 0 1-.657-.63v20.594a6.844 6.844 0 0 1-1.208 3.891l-.032.044c-.067.096-.136.19-.208.282l-.028.036a5.878 5.878 0 0 1-.263.315 6.872 6.872 0 0 1-.53.536l-.1.087c-.06.052-.12.104-.182.154l-.115.09a7.034 7.034 0 0 1-.195.145l-.109.077a7 7 0 0 1-.988.57l-.029.013c-.111.052-.225.1-.339.146l-.032.013c-.1.039-.201.076-.303.111l-.11.036a5.478 5.478 0 0 1-.258.076l-.106.032a8.889 8.889 0 0 1-.367.085l-.095.017a8.48 8.48 0 0 1-.278.047c-.016.002-.031.007-.046.009l-16.772 2.357a6.864 6.864 0 0 1-2.93-.223 6.868 6.868 0 0 1-2.322.765l-48.965 6.883a6.88 6.88 0 0 1-6.913-3.372l-9.096-15.755a6.87 6.87 0 0 1-.921-3.438v-36.297l-11.619 1.633a6.879 6.879 0 0 1-6.612-2.897l-.219-.317v-.001l-.004-.005-.423-.613-.048-.066-.22-.318a7.328 7.328 0 0 1-.295-.467l-9.093-15.751a6.096 6.096 0 0 1-.201-.373l-.003-.006a6.88 6.88 0 0 1-.532-4.665c.83-3.467 1.881-7.114 3.143-10.933a373.032 373.032 0 0 1 3.965-11.366l.045-.123c1.486-3.83 2.934-7.44 4.34-10.832l.187-.414a6.876 6.876 0 0 1 5.207-3.763l13.881-1.95.26-.032a6.864 6.864 0 0 1 2.411.182 6.609 6.609 0 0 1 .417-.162l.201-.068.105-.032a7.082 7.082 0 0 1 .868-.201c.052-.009.106-.02.159-.027l48.964-6.88.394-.044a6.876 6.876 0 0 1 3.234.519c.064-.026.131-.048.197-.072l.075-.029c.081-.028.161-.056.243-.082l.026-.007c.265-.083.537-.15.814-.2l.036-.006c.078-.013.155-.029.234-.04l15.717-2.208.045-.006.045-.007.059-.007c.228-.03.456-.049.683-.056l.072-.003h.184l.094.001a6.815 6.815 0 0 1 .657.044l.071.008a7.176 7.176 0 0 1 .44.072l.113.022a5.478 5.478 0 0 1 .313.074 8.721 8.721 0 0 1 .55.168l.108.037c.084.031.167.064.25.099l.117.051.137.061a6.268 6.268 0 0 1 .226.11c.82.416 1.561.998 2.168 1.729l.028.033c.236.288.453.596.644.928l7.823 13.55 6.206-16.27.087-.218a6.875 6.875 0 0 1 5.38-4.141l15.807-2.223.016-.002.085-.01.17-.02c.054-.006.109-.01.164-.014a5.31 5.31 0 0 1 .245-.014c.035-.002.071-.002.106-.003l.153-.003c.05 0 .101 0 .152.002Zm-.132 6.877-.001-.003-15.808 2.222-12.202 31.995-5.11-12.53-9.097-15.757.004.01-.005-.01-15.807 2.222 9.096 15.756 13.283-1.866-13.282 1.867v75.433l-.001.001V80.924l-9.096-15.756v9.053l-5.252-9.095-.001-.001-48.965 6.88 9.097 15.759-9.097-15.756V80l-4.42-7.655-13.881 1.95a507.499 507.499 0 0 0-4.28 10.688l.001.001a367.717 367.717 0 0 0-3.893 11.158c-1.21 3.663-2.206 7.121-2.984 10.375l.003.004 9.094 15.752.219.318-.015-.026.016.024.468.678.001.001.22.317 17.77-2.497.001-.002a209.87 209.87 0 0 1 1.192-7.485c.154-.874.317-1.765.488-2.673v54.131l9.097 15.755 48.965-6.882v-9.638l5.252 9.096 16.772-2.358-.001-.002h.002v-48.632l2.854 7.643 9.097 15.755-.003-.006.005.007 3.433-9.708v15.746l9.096 15.756 16.771-2.358.001.002V72.769l-9.097-15.756v.003Zm-58.026 92.928-5.25-9.093-21.941 3.083v-2.82l-.001-.002 24.483-3.439.001-.002-.001-.002v-18.685l-.002-.001h.003l-9.097-15.755-15.386 2.162v-3.015l-.001-.002 27.192-3.82v51.391Zm-79.385-22.534.001.002.055.079.008-.007c-.018-.024-.038-.047-.056-.072l-.004.004-.003-.004-.004-.006a.014.014 0 0 0 .003.004Zm-.064-.097.002.002.002.004.005.008.011.017.025.039.016.023c-.016-.023-.03-.048-.046-.072l-.015-.021Zm-.651-.938.028.042.041.06-.06-.089-.02-.031-.005-.006a.478.478 0 0 1 .016.024Zm110.386-.748-4.417-11.826v-.002l4.417 11.828Zm-104.854-3.399v.002h-.001v-.004l.001.002Zm7.959-24.286c.356-.902.71-1.791 1.061-2.667l-1.061 2.667Zm1.061-2.667.018-.047.189-.466-.207.513Zm.207-.513c.207-.515.411-1.025.616-1.53-.205.505-.409 1.015-.616 1.53Zm.616-1.53Z" class="mainlogo__Union mainlogo__(Stroke)"/>
    <path fill="#7A0D00" fill-rule="evenodd" d="m231.21 93.914.001 17.131.001.002-16.386 2.303v76.114l-.002-.003v.002l-18.12 2.546-9.097-15.755v-59.081l-7.096.997-3.697-6.403v83.038h-.002l.002.002-18.121 2.547-9.096-15.756.001-.001-.001-.001V161.06l-5.746.808v37.57l-.002-.004v.004l-18.12 2.547-4.687-8.118v8.387l-.002-.004v.003l.001.002-48.965 6.882-6.485-11.233-11.253 12.946s-.578.666-1.542.802l-.001-.001-36.82 5.174-9.096-15.756v-79.035l.003-.326c.009-.357.044-.8.189-1.258 1.735-1.607 10.024-11.338 11.566-12.918l.007-.04c.068-.212.644-.635 1.728-.788l9.043 15.665h.003l-9.043-15.664 36.82-5.174 5.785 10.018V100.33l7.831 13.564-7.831-13.566 48.964-6.881h.001l5.918 10.249c2.687-2.961 9.533-10.856 10.719-12.392l8.939 15.484.003-.001-8.938-15.482c.192-.027.578-.47 1.735-.633l9.094 15.753-9.095-15.756 37.398-5.256 3.696 6.401v-6.53l50.7-7.124 9.096 15.754Zm-197.307 83.21v2.822l5.36-.753 7.901 13.686.001-.001-7.901-13.685v-2.823l-5.36.754Zm14.458 14.379v-16.41 16.41Zm41.643-2.214v.002l20.61-2.898-20.61 2.896Zm0-58.593v3.015l15.384-2.161.001.001 9.097 15.754v18.689l-24.482 3.441v2.82l21.939-3.082.002.002v-.002l4.687 8.117v-50.337l-26.628 3.743Zm-28.201 32.106.035.063 1.142 1.976v-3.352l-1.177 1.313Zm-13.442-6.205-9.097-15.755v-2.821l-5.36.754v2.819l5.36-.752 9.097 15.755-14.458 2.032v.002l14.459-2.032v-19.856l-.001 19.854Zm41.643-5.852v.002l15.385-2.163-15.385 2.161Zm-65.198-24.183c-3.072 3.5-7.434 8.526-8.639 9.642l.001.001a4.534 4.534 0 0 0-.19 1.258l-.002.326c0-.389 0-.973.192-1.584 1.205-1.116 5.566-6.141 8.638-9.642v-.001Zm119.045-3.628v3.212l5.747-.808 7.188 12.451-7.189-12.452v-3.212l-5.746.809Zm-22.809-9.076 4.687 8.119c0-.317 0-.891.207-1.333-.207.442-.207 1.015-.207 1.331l-4.687-8.119v.002Zm13.712-3.312c-3.105 3.623-7.572 8.721-8.641 9.817l.001.001c1.066-1.092 5.534-6.192 8.64-9.817v-.001Z" class="mainlogo__Union" clip-rule="evenodd"/>
    <path fill="#000" d="M221.415 71.32a6.876 6.876 0 0 1 6.652 3.403l9.096 15.754a6.872 6.872 0 0 1 .921 3.438l.001 17.131h-.001a6.87 6.87 0 0 1-5.917 6.812l-10.467 1.471v70.136a6.88 6.88 0 0 1-3.817 6.159l-.027.012a5.774 5.774 0 0 1-.276.129 6.9 6.9 0 0 1-1.82.512l-18.102 2.544a6.877 6.877 0 0 1-6.911-3.372l-7.059-12.226v11.603a8.757 8.757 0 0 1-.008.324l-.004.056a9.26 9.26 0 0 1-.018.23l-.009.104c-.006.062-.015.124-.023.186a6.542 6.542 0 0 1-.063.384c-.01.053-.02.106-.032.158l-.023.102a8.33 8.33 0 0 1-.113.426 4.425 4.425 0 0 1-.04.123c-.009.029-.017.057-.027.085l-.015.043a6.77 6.77 0 0 1-.214.545l-.048.107c-.023.048-.045.096-.069.143a6.507 6.507 0 0 1-.276.507l-.018.031a6.867 6.867 0 0 1-2.289 2.293l-.061.037a6.81 6.81 0 0 1-.525.285l-.078.036c-.069.032-.138.064-.209.094l-.069.03a7.07 7.07 0 0 1-.592.215l-.024.007a7.01 7.01 0 0 1-.283.081l-.039.01a6.67 6.67 0 0 1-.318.073l-.017.004c-.096.02-.192.037-.289.052l-.059.01-.067.011-18.121 2.547a6.877 6.877 0 0 1-6.912-3.372l-2.01-3.483v2.129c0 .63-.087 1.243-.248 1.827l-.018.061a6.872 6.872 0 0 1-1.828 3.05l-.034.033a7.043 7.043 0 0 1-.646.547l-.051.037a6.466 6.466 0 0 1-.19.134l-.056.037a6.548 6.548 0 0 1-.263.167l-.211.122-.03.015c-.075.041-.15.081-.227.119l-.061.031c-.064.031-.128.06-.193.089l-.077.036a5.685 5.685 0 0 1-.195.081l-.096.038a6.94 6.94 0 0 1-1.526.389l-18.092 2.543a6.858 6.858 0 0 1-2.929-.222l-.114.046-.113.046a6.784 6.784 0 0 1-.811.257c-.031.008-.06.018-.091.025-.054.013-.109.022-.163.034l-.084.018a6.83 6.83 0 0 1-.343.059l-.04.008-48.965 6.882a6.878 6.878 0 0 1-6.912-3.371l-1.666-2.885-4.928 5.671-5.19-4.511 5.19 4.513-.003.004-.007.006-.041.047-.06.067-.14.149c-.1.105-.219.224-.356.352a9.711 9.711 0 0 1-1.08.867 9.518 9.518 0 0 1-4.087 1.605l-.04.004-36.78 5.17a6.876 6.876 0 0 1-6.912-3.371L.922 204.508A6.876 6.876 0 0 1 0 201.07v-79.035l.001-.056.002-.326.002-.117a11.38 11.38 0 0 1 .505-3.152l.148-.422a6.872 6.872 0 0 1 1.738-2.556 23.514 23.514 0 0 0 .583-.605c.352-.375.79-.856 1.297-1.421a440.005 440.005 0 0 0 3.477-3.93c1.98-2.259 4.194-4.805 5.403-6.124a7.51 7.51 0 0 1 1.051-1.152 8.549 8.549 0 0 1 1.719-1.184c1.074-.565 2.265-.922 3.487-1.094l.068-.009 36.754-5.165a6.866 6.866 0 0 1 2.588.13c.03-.024.06-.048.091-.07.035-.026.072-.05.108-.075a6.78 6.78 0 0 1 .59-.373c.04-.023.08-.044.121-.066l.194-.1.138-.067a6.958 6.958 0 0 1 .817-.32l.133-.04c.12-.035.24-.068.363-.097l.127-.03a6.51 6.51 0 0 1 .356-.068c.053-.008.106-.019.16-.026l48.964-6.882.402-.044a6.874 6.874 0 0 1 5.428 2.002l.001.001.305.326c.294.336.554.7.777 1.087l1.124 1.947c1.951-2.257 3.649-4.25 4.116-4.855l.272-.331a6.873 6.873 0 0 1 1.799-1.456l.062-.034a6.832 6.832 0 0 1 .343-.177l.02-.01c.103-.057.22-.123.342-.184.416-.212.916-.43 1.505-.62a11.06 11.06 0 0 1 1.606-.382 6.49 6.49 0 0 1 .273-.047l37.399-5.257a6.866 6.866 0 0 1 2.578.127c.36-.114.733-.2 1.118-.255l50.7-7.124.26-.031Zm-50.003 13.967v6.529l-3.696-6.402-37.399 5.256 9.096 15.756-9.095-15.753c-1.155.163-1.541.605-1.734.633l8.938 15.483-.002.001-8.94-15.485c-1.186 1.536-8.032 9.431-10.719 12.393l-5.918-10.25h-.001l-48.964 6.882 7.832 13.565-7.833-13.563v11.219l-5.785-10.019-36.819 5.175 9.043 15.663h-.003l-9.043-15.664c-1.083.152-1.659.575-1.727.788l-.008.04c-1.543 1.58-9.832 11.311-11.567 12.918-.144.458-.18.901-.188 1.257l-.003.326v79.035l9.097 15.757 36.819-5.175v.001a2.703 2.703 0 0 0 1.543-.801l11.253-12.946 6.485 11.232 48.965-6.882-.001-.002v-.003l.002.004v-8.386l4.687 8.117 18.121-2.547v-.003l.001.003V161.87l5.746-.809v20.537h.001l-.001.001 9.096 15.756 18.121-2.547-.001-.002h.001v-83.037l3.697 6.402 7.096-.997v59.081l9.097 15.756 18.12-2.546v-.003l.002.003v-76.113l16.386-2.304-.001-.002-.001-17.13-9.096-15.754-50.7 7.125Zm-132.15 93.908 7.901 13.684v.001l-7.901-13.685-5.36.752v-2.822l5.36-.753v2.823Zm50.74 10.097v-.001l20.61-2.896-20.61 2.897Zm26.628-12.001-4.687-8.117v.003l-.002-.003-21.939 3.082v-2.82l24.481-3.44v-18.689l-9.096-15.755v-.001l-15.385 2.161v-3.014l26.628-3.743v50.336Zm-53.652-12.449-1.142-1.976-.035-.063 1.176-1.312v3.351Zm-14.618-8.241-14.459 2.031v-.002l14.458-2.031.001-19.854v19.856Zm41.642-5.852v-.002l15.385-2.162-15.385 2.164Zm-50.74-9.906-5.36.752v-2.819l5.36-.753v2.82Zm-23.266-3.731a7.993 7.993 0 0 0-.022.679l.003-.327c.002-.11.009-.228.02-.352Zm.078-.548Zm0 0 .016-.075-.016.075Zm.016-.075Zm8.714-9.924c-3.072 3.5-7.434 8.525-8.638 9.641h-.001c1.205-1.116 5.568-6.143 8.639-9.643v.002Zm124.791-1.227.001.001-5.747.808v-3.212l5.746-.809v3.212Zm-23.868-3.362c0-.198 0-.496.05-.799-.05.304-.05.603-.05.801l-4.687-8.118v-.002l4.687 8.118Zm9.025-11.427c-3.106 3.625-7.574 8.724-8.64 9.816l-.001-.001c1.07-1.096 5.536-6.194 8.641-9.817v.002Z" class="mainlogo__Union mainlogo__(Stroke)"/>
    <g class="mainlogo__Favourites">
      <path fill="url(#mainlogo__a)" d="M55.552 143.396c-.386.444-5.59 6.237-5.59 6.237s5.397 4.886 5.59 5.054c.193.168.578.503.578 1.865v24.529c0 .194 0 1.168-.385 1.416l-11.567 13.306s-.578.665-1.542.801l-36.82 5.175v-79.036c0-.389 0-.973.193-1.584 1.735-1.607 10.024-11.337 11.567-12.917 0-.194.578-.665 1.735-.827l36.82-5.175v39.518c0 .778-.193 1.195-.579 1.638Zm-31.808.188 14.458-2.032v-19.856l-14.458 2.032v19.856Zm0 38.349 14.458-2.032v-19.856l-14.458 2.032v19.856Z"/>
      <path fill="url(#mainlogo__b)" d="M110.881 94.156v17.131l-31.037 4.362v20.05l24.483-3.44v18.688l-24.483 3.441v19.856l31.037-4.362v17.325l-48.964 6.882v-93.052l48.964-6.881Z"/>
      <path fill="url(#mainlogo__c)" d="M166.654 86.123v93.635l-18.12 2.547v-37.571l-14.844 2.086v37.571l-18.121 2.547v-80.009c0-.389 0-1.168.386-1.611 1.542-1.58 10.217-11.56 11.566-13.306.193-.027.579-.47 1.735-.633l37.398-5.256Zm-18.12 19.677-14.844 2.086v20.246l14.844-2.086V105.8Z"/>
      <path fill="url(#mainlogo__d)" d="m170.352 85.993 50.699-7.126v17.131l-16.386 2.303v76.115l-18.12 2.547v-76.115l-16.193 2.275v-17.13Z"/>
      <path stroke="url(#mainlogo__e)" stroke-opacity=".86" stroke-width="3" d="M54.63 141.758c0 .265-.033.375-.049.418a.774.774 0 0 1-.161.236c-.183.21-1.567 1.754-2.924 3.267l-1.831 2.04-.595.662-.166.184-.044.048-.01.013-.004.004-1 1.111 1.11 1.003 1.006-1.111-1.007 1.112h.001l.003.003.012.011.045.041.172.155.614.556 1.876 1.698a1436.47 1436.47 0 0 0 2.87 2.593c.026.074.082.291.082.751v24.528c0 .043 0 .11-.004.194a2.38 2.38 0 0 1-.024.25l-11.54 13.276-.011.011a1.295 1.295 0 0 1-.135.107c-.133.092-.3.173-.488.199l-35.112 4.935v-77.31c0-.28.005-.55.05-.815 1.129-1.139 3.433-3.746 5.626-6.248 2.512-2.865 4.923-5.639 5.656-6.39l.218-.224c.136-.056.35-.123.654-.166l35.11-4.935v37.793Zm54.751-31.776-29.745 4.181-1.291.182v23.08l1.709-.24 22.773-3.202v15.66l-23.191 3.259-1.291.182v22.886l1.709-.241 29.327-4.123v14.296l-45.964 6.461v-90.022l45.964-6.46v14.101Zm55.773 68.471-15.121 2.126v-37.57l-1.708.24-14.844 2.086-1.291.182v37.569l-15.121 2.126v-78.283c0-.201.003-.381.03-.546a.806.806 0 0 1 .028-.123c1.737-1.819 9.481-10.723 11.355-13.05a2.33 2.33 0 0 1 .983-.346l35.689-5.016v90.605ZM37.994 158.56l-14.459 2.032-1.29.181v22.886l1.708-.24 14.458-2.032 1.291-.182v-22.886l-1.709.241ZM219.55 94.693l-15.094 2.122-1.292.182v76.114l-15.12 2.126V99.122l-1.709.24-14.484 2.035V87.296l47.699-6.704v14.101ZM37.993 120.21l-14.458 2.032-1.29.182v22.886l1.708-.241 14.458-2.032 1.291-.182V119.97l-1.709.24Zm110.332-15.896-14.844 2.087-1.291.182v23.274l1.708-.24 14.844-2.086 1.291-.181v-23.275l-1.708.239Z"/>
    </g>
    <g class="mainlogo__Favourites">
      <path fill="url(#mainlogo__f)" d="M237.23 107.225c.779-3.253 1.773-6.712 2.984-10.375a370.46 370.46 0 0 1 3.891-11.157 512.926 512.926 0 0 1 4.281-10.688l13.88-1.95c-.778 3.514-1.6 7.254-2.465 11.218a934.38 934.38 0 0 0-2.205 11.575 215.193 215.193 0 0 0-1.686 10.192l-17.771 2.498-.909-1.313Z"/>
      <path fill="url(#mainlogo__g)" d="M315.652 65.833v17.131l-31.036 4.362v20.051l24.482-3.441v18.688l-24.482 3.441v19.856l31.036-4.362v17.326l-48.964 6.881V72.715l48.964-6.882Z"/>
      <path fill="url(#mainlogo__h)" d="M378.93 57.719v92.467l-16.771 2.357V95.311l-12.53 35.438-11.952-31.998v57.233l-16.772 2.357V65.874l15.808-2.222 12.916 31.668 13.494-35.38 15.807-2.221Z"/>
      <path stroke="url(#mainlogo__i)" stroke-opacity=".86" stroke-width="3" d="m314.152 81.66-29.745 4.18-1.292.182v23.081l1.709-.241 22.774-3.202v15.659l-23.191 3.26-1.292.182v22.885l1.709-.24 29.328-4.122v14.296l-45.964 6.46V74.019l45.964-6.461v14.101Zm63.278 67.222-13.771 1.935V95.31l-2.914-.5-11.156 31.547-10.507-28.13-2.905.525v55.928l-13.772 1.935V67.178l13.36-1.878 12.474 30.586 1.437 3.52 1.354-3.552 13.178-34.552 13.222-1.859v89.439ZM260.336 74.84c-.639 2.893-1.306 5.93-2 9.113l-.004.015-.003.015a933.02 933.02 0 0 0-2.207 11.587 225.378 225.378 0 0 0-1.539 9.141l-15.734 2.212a128.374 128.374 0 0 1 2.79-9.603 363.562 363.562 0 0 1 3.865-11.085 519.035 519.035 0 0 1 3.942-9.865l10.89-1.53Z"/>
    </g>
    <g class="mainlogo__Favourites">
      <path fill="url(#mainlogo__j)" d="M407.002 19.666v75.726l14.651-2.059V17.607l18.121-2.546V93.9c0 .973-.386 1.612-.386 1.612l-11.566 13.5s-.771.887-1.735 1.022l-22.94 3.224c-1.157.163-2.314-.648-2.314-.648s-10.217-9.271-11.18-10.108c-.579-.309-.579-.698-.579-1.866v-78.45l17.928-2.52Z"/>
      <path fill="url(#mainlogo__k)" d="M496.631 6.875v42.243c0 1.363-.192 1.39-.964 2.082-.385.833-10.216 11.559-10.602 12.197-.771.887-1.349 1.163-2.121 1.271l-19.277 2.71v37.376l-17.928 2.519V27.849c0-.39.193-1.195.193-1.78 1.735-1.606 10.602-11.417 11.952-12.97.193-.416.578-.86 1.735-1.022l37.012-5.202Zm-18.12 19.677-14.844 2.087v20.245l14.844-2.086V26.552Z"/>
      <path stroke="url(#mainlogo__l)" stroke-opacity=".86" stroke-width="3" d="M438.273 93.901c0 .29-.057.527-.111.685-.014.04-.03.072-.041.1l-11.423 13.333-.002.002-.006.006v.001c-.009.011-.027.028-.051.052a2.593 2.593 0 0 1-.233.2c-.222.169-.412.254-.528.27l-22.94 3.224c-.194.027-.479-.025-.8-.161a3.044 3.044 0 0 1-.353-.175l-.036-.022a.398.398 0 0 1-.022-.02l-.327-.295a553.07 553.07 0 0 0-1.171-1.063c-.973-.882-2.28-2.068-3.618-3.279-2.664-2.413-5.477-4.957-5.974-5.389l-.055-.047v-.011a17.18 17.18 0 0 1-.008-.675V23.489l14.928-2.098v75.727l1.709-.24 14.65-2.06 1.292-.181V18.91l15.12-2.126V93.9Zm56.859-44.783c0 .304-.012.473-.026.572l-.001.001a4.663 4.663 0 0 1-.167.152c-.072.063-.17.148-.273.241l-.229.206-.095.204c-.011.016-.027.04-.052.073-.075.1-.186.24-.333.42-.293.357-.699.835-1.187 1.398a429.437 429.437 0 0 1-3.523 3.988c-1.274 1.429-2.555 2.861-3.539 3.972a130.12 130.12 0 0 0-1.228 1.4 25.8 25.8 0 0 0-.396.468c-.046.056-.114.14-.181.231-.301.342-.503.499-.643.58-.13.074-.273.123-.524.159l-19.277 2.71-1.291.18v37.376l-14.928 2.099v-77.7c.001-.005.003-.052.018-.166.015-.12.036-.253.062-.428.022-.143.046-.32.068-.508 2.493-2.493 10.379-11.226 11.629-12.663l.139-.16.09-.194.002-.005c.031-.02.182-.106.58-.162L495.132 8.6v40.518Zm-16.83-24.05-14.844 2.085-1.291.182v23.274l1.709-.24 14.844-2.086 1.291-.181V24.827l-1.709.24Z"/>
    </g>
  </g>
</svg>
