<svg width="504" height="149" viewBox="0 0 504 149" fill="none" xmlns="http://www.w3.org/2000/svg">
<path d="M277.099 0.304688C303.956 0.304816 324.636 21.4784 324.636 46.8438C324.636 74.2506 303.355 94.4912 276.766 94.4912C251.549 94.4912 230.227 72.9622 230.227 48.2852C230.227 46.2105 230.346 44.1771 230.579 42.1904C227.784 52.1368 220.167 58.4592 211.723 61.0254L235.657 92.9385H209.361L188.896 64.1699V92.9385H167.917V21.8389H153.599V92.9385H132.619V21.8389H87.21V37.0195H119.487V57H87.21V72.958H119.487V92.9385H42.3701L21.9053 64.1699V92.9385H0.925781V1.85742H31.7139C42.3442 1.85742 50.8001 4.67473 56.5723 10.5156C62.3329 16.3451 64.7206 24.4789 64.7207 33.6436C64.7207 48.5723 55.3834 57.7881 44.7305 61.0254L66.2305 89.6914V1.85742H198.705C209.335 1.85742 217.791 4.67473 223.563 10.5156C229.324 16.3451 231.712 24.4788 231.712 33.6436C231.712 34.5847 231.675 35.5038 231.603 36.3994C236.703 14.9985 255.362 0.304688 277.099 0.304688ZM376.957 21.8389H347.452V37.4629H376.957V57.4443H347.452V92.9385H326.473V1.85742H376.957V21.8389ZM440.5 29.2207L458.58 1.85742H483.625L453.204 47.3037L483.341 92.9385H458.452L440.459 65.3633L422.271 92.9385H380.538V1.85742H422.616L440.5 29.2207ZM401.518 86.8682L427.651 47.2939L401.518 7.93359V86.8682ZM277.985 20.2861C268.356 20.2862 261.793 24.3578 257.538 29.665C253.164 35.1212 251.206 41.9357 251.206 47.0654C251.206 61.5569 261.598 74.5107 277.432 74.5107C293.831 74.5105 303.656 60.67 303.656 47.6201C303.656 32.7817 292.465 20.2861 277.985 20.2861ZM21.9053 44.2295H26.168C32.6818 44.2295 37.1292 42.9443 39.832 41.0166C42.2989 39.2571 43.7412 36.6697 43.7412 32.6455C43.7412 29.24 42.4289 26.7012 40.2783 24.9307C38.0424 23.0899 34.5823 21.8389 30.0498 21.8389H21.9053V44.2295ZM188.896 44.2295H193.159C199.673 44.2295 204.121 42.9443 206.824 41.0166C209.291 39.2571 210.732 36.6695 210.732 32.6455C210.732 29.2402 209.421 26.7012 207.271 24.9307C205.035 23.0899 201.574 21.8389 197.042 21.8389H188.896V44.2295ZM495.482 12.1641C496.886 12.1642 498.023 13.3019 498.023 14.7051C498.023 16.1082 496.886 17.246 495.482 17.2461C494.079 17.2461 492.942 16.1083 492.941 14.7051C492.941 13.3018 494.079 12.1641 495.482 12.1641ZM490.4 7.08203C491.804 7.08213 492.941 8.21984 492.941 9.62305C492.941 11.0262 491.804 12.164 490.4 12.1641C488.997 12.1641 487.859 11.0262 487.859 9.62305C487.859 8.21978 488.997 7.08203 490.4 7.08203ZM500.564 7.08203C501.968 7.08213 503.105 8.21984 503.105 9.62305C503.105 11.0262 501.968 12.164 500.564 12.1641C499.161 12.1641 498.024 11.0262 498.023 9.62305C498.023 8.21978 499.161 7.08203 500.564 7.08203ZM495.482 2C496.886 2.0001 498.023 3.13781 498.023 4.54102C498.023 5.94413 496.886 7.08193 495.482 7.08203C494.079 7.08203 492.942 5.94419 492.941 4.54102C492.941 3.13775 494.079 2 495.482 2Z" fill="white"/>
<path d="M0.546875 140.546L4.54211 143.994C5.50938 143.363 6.43459 143.069 7.02336 142.859C16.9484 139.62 25.6538 134.616 31.4153 127.719L28.4294 122.967C23.0464 129.527 13.6681 134.91 6.81309 136.887V115.018C6.81309 113.378 6.98131 111.864 7.23364 110.224H0.630986C0.883316 111.444 1.09359 113.42 1.09359 115.018V137.812C1.09359 138.779 1.05154 139.494 0.546875 140.546Z" fill="white"/>
<path d="M44.6627 138.191C44.6627 139.873 44.4945 142.396 44.2422 144.078H50.8028C50.6345 142.354 50.4243 139.41 50.4243 138.191V126.289C54.9662 127.845 61.2745 130.284 65.6061 132.555L68.0033 126.752C64.1342 124.859 56.0596 121.873 50.4243 120.233V114.009C50.4243 112.285 50.6345 110.434 50.8028 108.962H44.2422C44.5365 110.434 44.6627 112.537 44.6627 114.009V138.191Z" fill="white"/>
<path d="M75.8676 112.411C75.9517 113.588 75.9517 115.313 75.9517 116.49V137.055C75.9517 139.074 75.8255 142.733 75.8255 142.943H81.6292C81.6292 142.817 81.6292 141.849 81.5871 140.672H101.858C101.858 141.891 101.816 142.859 101.816 142.943H107.619C107.619 142.775 107.535 138.737 107.535 137.097V116.49C107.535 115.229 107.535 113.672 107.619 112.411C106.105 112.495 104.507 112.495 103.456 112.495H80.3254C79.19 112.495 77.5919 112.453 75.8676 112.411ZM81.5871 117.836H101.9V135.289H81.5871V117.836Z" fill="white"/>
<path d="M147.067 114.219L142.946 111.57C141.81 111.864 140.464 111.906 139.623 111.906H120.194C118.806 111.906 116.409 111.696 115.147 111.57V117.499C116.241 117.415 118.259 117.331 120.152 117.331H139.749C139.203 120.906 137.605 125.7 134.829 129.191C131.422 133.438 126.67 137.097 118.343 139.074L122.927 144.078C130.413 141.681 136.006 137.518 139.833 132.471C143.324 127.803 145.174 121.284 146.142 117.163C146.352 116.28 146.688 115.06 147.067 114.219Z" fill="white"/>
<path d="M152.47 130.242L154.951 135.205C158.61 134.069 163.32 132.135 167.021 130.284V141.387C167.021 142.859 166.895 145.088 166.811 145.929H173.035C172.782 145.088 172.74 142.859 172.74 141.387V126.962C176.483 124.481 180.184 121.495 182.161 119.308L177.997 115.229C175.852 117.962 171.605 121.747 167.525 124.228C164.203 126.247 157.937 129.065 152.47 130.242Z" fill="white"/>
<path d="M208.319 117.247L203.314 118.887C204.366 121.074 206.216 126.163 206.721 128.224L211.767 126.457C211.179 124.523 209.118 119.056 208.319 117.247ZM223.837 120.317L217.95 118.425C217.445 123.682 215.426 129.275 212.566 132.85C209.076 137.223 203.23 140.42 198.604 141.639L203.02 146.139C207.94 144.289 213.197 140.756 217.108 135.709C219.968 132.009 221.734 127.635 222.828 123.387C223.08 122.546 223.333 121.663 223.837 120.317ZM198.562 119.476L193.516 121.284C194.525 123.135 196.628 128.728 197.343 130.999L202.473 129.065C201.632 126.71 199.613 121.621 198.562 119.476Z" fill="white"/>
<path d="M250.29 109.425L244.15 107.406C243.771 108.836 242.888 110.771 242.257 111.822C240.155 115.439 236.496 120.864 229.136 125.364L233.846 128.854C237.968 126.037 241.627 122.336 244.444 118.677H256.262C255.589 121.831 253.15 126.878 250.29 130.158C246.631 134.322 241.963 137.98 233.342 140.546L238.304 145.004C246.211 141.891 251.299 138.022 255.294 133.144C259.079 128.434 261.477 122.84 262.612 119.098C262.948 118.046 263.537 116.869 264 116.07L259.71 113.42C258.743 113.715 257.355 113.925 256.051 113.925H247.598C247.64 113.841 247.682 113.799 247.725 113.715C248.229 112.789 249.323 110.897 250.29 109.425Z" fill="white"/>
<path d="M299.104 113.715L295.656 111.149C294.815 111.444 293.133 111.696 291.324 111.696H276.479C275.217 111.696 272.652 111.57 271.516 111.401V117.373C272.399 117.331 274.712 117.079 276.479 117.079H290.735C289.81 120.065 287.245 124.228 284.469 127.382C280.516 131.798 273.997 136.929 267.227 139.452L271.558 143.994C277.32 141.261 282.913 136.887 287.371 132.177C291.324 136.004 295.235 140.293 297.969 144.078L302.763 139.915C300.282 136.887 295.193 131.504 291.03 127.887C293.848 124.102 296.203 119.602 297.632 116.322C298.011 115.481 298.768 114.177 299.104 113.715Z" fill="white"/>
<path d="M379.611 105.016C382.574 105.016 385.044 106.065 386.896 107.547C389.364 109.522 390.784 112.423 390.784 117.114V147.67H380.044V119.09C380.044 118.349 379.549 117.979 379.056 117.979C378.747 117.979 378.376 118.164 378.253 118.473L365.599 144.707C364.302 147.361 361.525 148.534 358.562 148.534C355.6 148.534 352.822 147.361 351.525 144.707L338.871 118.473C338.748 118.164 338.377 117.979 338.068 117.979C337.575 117.979 337.081 118.349 337.081 119.09V147.67H326.34V117.114C326.34 112.423 327.76 109.522 330.229 107.547C332.08 106.065 334.55 105.016 337.513 105.016C342.821 105.016 345.908 108.164 348.068 112.793L357.513 133.287C357.76 133.904 358.069 134.09 358.562 134.09C359.056 134.09 359.364 133.904 359.611 133.287L369.056 112.793C371.216 108.164 374.303 105.016 379.611 105.016ZM423.926 105.016C427.876 105.016 430.346 106.065 432.938 109.151L453.309 133.534C453.617 133.966 453.987 134.028 454.357 134.028C454.851 134.028 455.222 133.658 455.222 132.917V105.941H466.147V139.584C466.147 145.88 462.383 148.534 458.309 148.534C454.79 148.534 452.135 147.547 450.16 145.263L427.259 118.781C426.95 118.411 426.642 118.226 426.271 118.226C425.716 118.226 425.222 118.658 425.222 119.398V147.67H414.234V114.769C414.234 107.67 418.309 105.016 423.926 105.016ZM408.109 147.67H396.875V105.941H408.109V147.67ZM483.645 147.67H472.41V105.941H483.645V147.67Z" fill="white"/>
</svg>
