<svg width="128" height="128" viewBox="0 0 128 128" fill="none" xmlns="http://www.w3.org/2000/svg">
<mask id="path-1-outside-1_325_675" maskUnits="userSpaceOnUse" x="3.5" y="26.9565" width="13" height="71" fill="black">
<rect fill="white" x="3.5" y="26.9565" width="13" height="71"/>
<path d="M13.1914 94.7153H12.917C9.37295 94.7151 6.5 91.8414 6.5 88.2974V84.8481H9.78906V83.6011H6.5V82.353H9.78906V81.106H6.5V79.8579H9.78906V78.6108H6.5V77.3628H9.78906V68.6304H6.5V67.3823H9.78906V66.1353H6.5V64.8872H9.78906V63.6401H6.5V62.3921H9.78906V61.145H6.5V59.8979H9.78906V58.6499H6.5V57.4028H9.78906V56.1548H6.5V54.9077H9.78906V53.6597H6.5V52.4126H9.78906V51.1646H6.5V49.9175H9.78906V48.6694H6.5V47.4224H9.78906V46.1743H6.5V44.9272H9.78906V43.6792H6.5V36.3735C6.50019 32.8296 9.37307 29.9567 12.917 29.9565H13.1914V94.7153Z"/>
</mask>
<path d="M13.1914 94.7153H12.917C9.37295 94.7151 6.5 91.8414 6.5 88.2974V84.8481H9.78906V83.6011H6.5V82.353H9.78906V81.106H6.5V79.8579H9.78906V78.6108H6.5V77.3628H9.78906V68.6304H6.5V67.3823H9.78906V66.1353H6.5V64.8872H9.78906V63.6401H6.5V62.3921H9.78906V61.145H6.5V59.8979H9.78906V58.6499H6.5V57.4028H9.78906V56.1548H6.5V54.9077H9.78906V53.6597H6.5V52.4126H9.78906V51.1646H6.5V49.9175H9.78906V48.6694H6.5V47.4224H9.78906V46.1743H6.5V44.9272H9.78906V43.6792H6.5V36.3735C6.50019 32.8296 9.37307 29.9567 12.917 29.9565H13.1914V94.7153Z" fill="#AAAAAA"/>
<path d="M13.1914 94.7153V97.7153H16.1914V94.7153H13.1914ZM12.917 94.7153L12.9168 97.7153H12.917V94.7153ZM6.5 84.8481V81.8481H3.5V84.8481H6.5ZM9.78906 84.8481V87.8481H12.7891V84.8481H9.78906ZM9.78906 83.6011H12.7891V80.6011H9.78906V83.6011ZM6.5 83.6011H3.5V86.6011H6.5V83.6011ZM6.5 82.353V79.353H3.5V82.353H6.5ZM9.78906 82.353V85.353H12.7891V82.353H9.78906ZM9.78906 81.106H12.7891V78.106H9.78906V81.106ZM6.5 81.106H3.5V84.106H6.5V81.106ZM6.5 79.8579V76.8579H3.5V79.8579H6.5ZM9.78906 79.8579V82.8579H12.7891V79.8579H9.78906ZM9.78906 78.6108H12.7891V75.6108H9.78906V78.6108ZM6.5 78.6108H3.5V81.6108H6.5V78.6108ZM6.5 77.3628V74.3628H3.5V77.3628H6.5ZM9.78906 77.3628V80.3628H12.7891V77.3628H9.78906ZM9.78906 68.6304H12.7891V65.6304H9.78906V68.6304ZM6.5 68.6304H3.5V71.6304H6.5V68.6304ZM6.5 67.3823V64.3823H3.5V67.3823H6.5ZM9.78906 67.3823V70.3823H12.7891V67.3823H9.78906ZM9.78906 66.1353H12.7891V63.1353H9.78906V66.1353ZM6.5 66.1353H3.5V69.1353H6.5V66.1353ZM6.5 64.8872V61.8872H3.5V64.8872H6.5ZM9.78906 64.8872V67.8872H12.7891V64.8872H9.78906ZM9.78906 63.6401H12.7891V60.6401H9.78906V63.6401ZM6.5 63.6401H3.5V66.6401H6.5V63.6401ZM6.5 62.3921V59.3921H3.5V62.3921H6.5ZM9.78906 62.3921V65.3921H12.7891V62.3921H9.78906ZM9.78906 61.145H12.7891V58.145H9.78906V61.145ZM6.5 61.145H3.5V64.145H6.5V61.145ZM6.5 59.8979V56.8979H3.5V59.8979H6.5ZM9.78906 59.8979V62.8979H12.7891V59.8979H9.78906ZM9.78906 58.6499H12.7891V55.6499H9.78906V58.6499ZM6.5 58.6499H3.5V61.6499H6.5V58.6499ZM6.5 57.4028V54.4028H3.5V57.4028H6.5ZM9.78906 57.4028V60.4028H12.7891V57.4028H9.78906ZM9.78906 56.1548H12.7891V53.1548H9.78906V56.1548ZM6.5 56.1548H3.5V59.1548H6.5V56.1548ZM6.5 54.9077V51.9077H3.5V54.9077H6.5ZM9.78906 54.9077V57.9077H12.7891V54.9077H9.78906ZM9.78906 53.6597H12.7891V50.6597H9.78906V53.6597ZM6.5 53.6597H3.5V56.6597H6.5V53.6597ZM6.5 52.4126V49.4126H3.5V52.4126H6.5ZM9.78906 52.4126V55.4126H12.7891V52.4126H9.78906ZM9.78906 51.1646H12.7891V48.1646H9.78906V51.1646ZM6.5 51.1646H3.5V54.1646H6.5V51.1646ZM6.5 49.9175V46.9175H3.5V49.9175H6.5ZM9.78906 49.9175V52.9175H12.7891V49.9175H9.78906ZM9.78906 48.6694H12.7891V45.6694H9.78906V48.6694ZM6.5 48.6694H3.5V51.6694H6.5V48.6694ZM6.5 47.4224V44.4224H3.5V47.4224H6.5ZM9.78906 47.4224V50.4224H12.7891V47.4224H9.78906ZM9.78906 46.1743H12.7891V43.1743H9.78906V46.1743ZM6.5 46.1743H3.5V49.1743H6.5V46.1743ZM6.5 44.9272V41.9272H3.5V44.9272H6.5ZM9.78906 44.9272V47.9272H12.7891V44.9272H9.78906ZM9.78906 43.6792H12.7891V40.6792H9.78906V43.6792ZM6.5 43.6792H3.5V46.6792H6.5V43.6792ZM6.5 36.3735L3.5 36.3734V36.3735H6.5ZM12.917 29.9565L12.917 26.9565L12.9168 26.9565L12.917 29.9565ZM13.1914 29.9565H16.1914V26.9565H13.1914V29.9565ZM13.1914 94.7153V91.7153H12.917V94.7153V97.7153H13.1914V94.7153ZM12.917 94.7153L12.9172 91.7153C11.0303 91.7152 9.5 90.185 9.5 88.2974H6.5H3.5C3.5 93.4979 7.71563 97.7151 12.9168 97.7153L12.917 94.7153ZM6.5 88.2974H9.5V84.8481H6.5H3.5V88.2974H6.5ZM6.5 84.8481V87.8481H9.78906V84.8481V81.8481H6.5V84.8481ZM9.78906 84.8481H12.7891V83.6011H9.78906H6.78906V84.8481H9.78906ZM9.78906 83.6011V80.6011H6.5V83.6011V86.6011H9.78906V83.6011ZM6.5 83.6011H9.5V82.353H6.5H3.5V83.6011H6.5ZM6.5 82.353V85.353H9.78906V82.353V79.353H6.5V82.353ZM9.78906 82.353H12.7891V81.106H9.78906H6.78906V82.353H9.78906ZM9.78906 81.106V78.106H6.5V81.106V84.106H9.78906V81.106ZM6.5 81.106H9.5V79.8579H6.5H3.5V81.106H6.5ZM6.5 79.8579V82.8579H9.78906V79.8579V76.8579H6.5V79.8579ZM9.78906 79.8579H12.7891V78.6108H9.78906H6.78906V79.8579H9.78906ZM9.78906 78.6108V75.6108H6.5V78.6108V81.6108H9.78906V78.6108ZM6.5 78.6108H9.5V77.3628H6.5H3.5V78.6108H6.5ZM6.5 77.3628V80.3628H9.78906V77.3628V74.3628H6.5V77.3628ZM9.78906 77.3628H12.7891V68.6304H9.78906H6.78906V77.3628H9.78906ZM9.78906 68.6304V65.6304H6.5V68.6304V71.6304H9.78906V68.6304ZM6.5 68.6304H9.5V67.3823H6.5H3.5V68.6304H6.5ZM6.5 67.3823V70.3823H9.78906V67.3823V64.3823H6.5V67.3823ZM9.78906 67.3823H12.7891V66.1353H9.78906H6.78906V67.3823H9.78906ZM9.78906 66.1353V63.1353H6.5V66.1353V69.1353H9.78906V66.1353ZM6.5 66.1353H9.5V64.8872H6.5H3.5V66.1353H6.5ZM6.5 64.8872V67.8872H9.78906V64.8872V61.8872H6.5V64.8872ZM9.78906 64.8872H12.7891V63.6401H9.78906H6.78906V64.8872H9.78906ZM9.78906 63.6401V60.6401H6.5V63.6401V66.6401H9.78906V63.6401ZM6.5 63.6401H9.5V62.3921H6.5H3.5V63.6401H6.5ZM6.5 62.3921V65.3921H9.78906V62.3921V59.3921H6.5V62.3921ZM9.78906 62.3921H12.7891V61.145H9.78906H6.78906V62.3921H9.78906ZM9.78906 61.145V58.145H6.5V61.145V64.145H9.78906V61.145ZM6.5 61.145H9.5V59.8979H6.5H3.5V61.145H6.5ZM6.5 59.8979V62.8979H9.78906V59.8979V56.8979H6.5V59.8979ZM9.78906 59.8979H12.7891V58.6499H9.78906H6.78906V59.8979H9.78906ZM9.78906 58.6499V55.6499H6.5V58.6499V61.6499H9.78906V58.6499ZM6.5 58.6499H9.5V57.4028H6.5H3.5V58.6499H6.5ZM6.5 57.4028V60.4028H9.78906V57.4028V54.4028H6.5V57.4028ZM9.78906 57.4028H12.7891V56.1548H9.78906H6.78906V57.4028H9.78906ZM9.78906 56.1548V53.1548H6.5V56.1548V59.1548H9.78906V56.1548ZM6.5 56.1548H9.5V54.9077H6.5H3.5V56.1548H6.5ZM6.5 54.9077V57.9077H9.78906V54.9077V51.9077H6.5V54.9077ZM9.78906 54.9077H12.7891V53.6597H9.78906H6.78906V54.9077H9.78906ZM9.78906 53.6597V50.6597H6.5V53.6597V56.6597H9.78906V53.6597ZM6.5 53.6597H9.5V52.4126H6.5H3.5V53.6597H6.5ZM6.5 52.4126V55.4126H9.78906V52.4126V49.4126H6.5V52.4126ZM9.78906 52.4126H12.7891V51.1646H9.78906H6.78906V52.4126H9.78906ZM9.78906 51.1646V48.1646H6.5V51.1646V54.1646H9.78906V51.1646ZM6.5 51.1646H9.5V49.9175H6.5H3.5V51.1646H6.5ZM6.5 49.9175V52.9175H9.78906V49.9175V46.9175H6.5V49.9175ZM9.78906 49.9175H12.7891V48.6694H9.78906H6.78906V49.9175H9.78906ZM9.78906 48.6694V45.6694H6.5V48.6694V51.6694H9.78906V48.6694ZM6.5 48.6694H9.5V47.4224H6.5H3.5V48.6694H6.5ZM6.5 47.4224V50.4224H9.78906V47.4224V44.4224H6.5V47.4224ZM9.78906 47.4224H12.7891V46.1743H9.78906H6.78906V47.4224H9.78906ZM9.78906 46.1743V43.1743H6.5V46.1743V49.1743H9.78906V46.1743ZM6.5 46.1743H9.5V44.9272H6.5H3.5V46.1743H6.5ZM6.5 44.9272V47.9272H9.78906V44.9272V41.9272H6.5V44.9272ZM9.78906 44.9272H12.7891V43.6792H9.78906H6.78906V44.9272H9.78906ZM9.78906 43.6792V40.6792H6.5V43.6792V46.6792H9.78906V43.6792ZM6.5 43.6792H9.5V36.3735H6.5H3.5V43.6792H6.5ZM6.5 36.3735L9.5 36.3737C9.5001 34.4865 11.03 32.9566 12.9172 32.9565L12.917 29.9565L12.9168 26.9565C7.71618 26.9568 3.50028 31.1727 3.5 36.3734L6.5 36.3735ZM12.917 29.9565V32.9565H13.1914V29.9565V26.9565H12.917V29.9565ZM13.1914 29.9565H10.1914V94.7153H13.1914H16.1914V29.9565H13.1914Z" fill="#777777" mask="url(#path-1-outside-1_325_675)"/>
<mask id="path-3-outside-2_325_675" maskUnits="userSpaceOnUse" x="111.5" y="26.9565" width="13" height="71" fill="black">
<rect fill="white" x="111.5" y="26.9565" width="13" height="71"/>
<path d="M114.809 94.7153H115.083C118.627 94.7151 121.5 91.8414 121.5 88.2974V84.8481H118.211V83.6011H121.5V82.353H118.211V81.106H121.5V79.8579H118.211V78.6108H121.5V77.3628H118.211V76.1157H121.5V74.8677H118.211V73.6206H121.5V72.3726H118.211V71.1255H121.5V69.8774H118.211V68.6304H121.5V67.3823H118.211V66.1353H121.5V64.8872H118.211V63.6401H121.5V62.3921H118.211V61.145H121.5V59.8979H118.211V58.6499H121.5V57.4028H118.211V56.1548H121.5V54.9077H118.211V53.6597H121.5V52.4126H118.211V51.1646H121.5V49.9175H118.211V48.6694H121.5V47.4224H118.211V46.1743H121.5V44.9272H118.211V43.6792H121.5V36.3735C121.5 32.8296 118.627 29.9567 115.083 29.9565H114.809V94.7153Z"/>
</mask>
<path d="M114.809 94.7153H115.083C118.627 94.7151 121.5 91.8414 121.5 88.2974V84.8481H118.211V83.6011H121.5V82.353H118.211V81.106H121.5V79.8579H118.211V78.6108H121.5V77.3628H118.211V76.1157H121.5V74.8677H118.211V73.6206H121.5V72.3726H118.211V71.1255H121.5V69.8774H118.211V68.6304H121.5V67.3823H118.211V66.1353H121.5V64.8872H118.211V63.6401H121.5V62.3921H118.211V61.145H121.5V59.8979H118.211V58.6499H121.5V57.4028H118.211V56.1548H121.5V54.9077H118.211V53.6597H121.5V52.4126H118.211V51.1646H121.5V49.9175H118.211V48.6694H121.5V47.4224H118.211V46.1743H121.5V44.9272H118.211V43.6792H121.5V36.3735C121.5 32.8296 118.627 29.9567 115.083 29.9565H114.809V94.7153Z" fill="#AAAAAA"/>
<path d="M114.809 94.7153V97.7153H111.809V94.7153H114.809ZM115.083 94.7153L115.083 97.7153H115.083V94.7153ZM121.5 84.8481V81.8481H124.5V84.8481H121.5ZM118.211 84.8481V87.8481H115.211V84.8481H118.211ZM118.211 83.6011H115.211V80.6011H118.211V83.6011ZM121.5 83.6011H124.5V86.6011H121.5V83.6011ZM121.5 82.353V79.353H124.5V82.353H121.5ZM118.211 82.353V85.353H115.211V82.353H118.211ZM118.211 81.106H115.211V78.106H118.211V81.106ZM121.5 81.106H124.5V84.106H121.5V81.106ZM121.5 79.8579V76.8579H124.5V79.8579H121.5ZM118.211 79.8579V82.8579H115.211V79.8579H118.211ZM118.211 78.6108H115.211V75.6108H118.211V78.6108ZM121.5 78.6108H124.5V81.6108H121.5V78.6108ZM121.5 77.3628V74.3628H124.5V77.3628H121.5ZM118.211 77.3628V80.3628H115.211V77.3628H118.211ZM118.211 76.1157H115.211V73.1157H118.211V76.1157ZM121.5 76.1157H124.5V79.1157H121.5V76.1157ZM121.5 74.8677V71.8677H124.5V74.8677H121.5ZM118.211 74.8677V77.8677H115.211V74.8677H118.211ZM118.211 73.6206H115.211V70.6206H118.211V73.6206ZM121.5 73.6206H124.5V76.6206H121.5V73.6206ZM121.5 72.3726V69.3726H124.5V72.3726H121.5ZM118.211 72.3726V75.3726H115.211V72.3726H118.211ZM118.211 71.1255H115.211V68.1255H118.211V71.1255ZM121.5 71.1255H124.5V74.1255H121.5V71.1255ZM121.5 69.8774V66.8774H124.5V69.8774H121.5ZM118.211 69.8774V72.8774H115.211V69.8774H118.211ZM118.211 68.6304H115.211V65.6304H118.211V68.6304ZM121.5 68.6304H124.5V71.6304H121.5V68.6304ZM121.5 67.3823V64.3823H124.5V67.3823H121.5ZM118.211 67.3823V70.3823H115.211V67.3823H118.211ZM118.211 66.1353H115.211V63.1353H118.211V66.1353ZM121.5 66.1353H124.5V69.1353H121.5V66.1353ZM121.5 64.8872V61.8872H124.5V64.8872H121.5ZM118.211 64.8872V67.8872H115.211V64.8872H118.211ZM118.211 63.6401H115.211V60.6401H118.211V63.6401ZM121.5 63.6401H124.5V66.6401H121.5V63.6401ZM121.5 62.3921V59.3921H124.5V62.3921H121.5ZM118.211 62.3921V65.3921H115.211V62.3921H118.211ZM118.211 61.145H115.211V58.145H118.211V61.145ZM121.5 61.145H124.5V64.145H121.5V61.145ZM121.5 59.8979V56.8979H124.5V59.8979H121.5ZM118.211 59.8979V62.8979H115.211V59.8979H118.211ZM118.211 58.6499H115.211V55.6499H118.211V58.6499ZM121.5 58.6499H124.5V61.6499H121.5V58.6499ZM121.5 57.4028V54.4028H124.5V57.4028H121.5ZM118.211 57.4028V60.4028H115.211V57.4028H118.211ZM118.211 56.1548H115.211V53.1548H118.211V56.1548ZM121.5 56.1548H124.5V59.1548H121.5V56.1548ZM121.5 54.9077V51.9077H124.5V54.9077H121.5ZM118.211 54.9077V57.9077H115.211V54.9077H118.211ZM118.211 53.6597H115.211V50.6597H118.211V53.6597ZM121.5 53.6597H124.5V56.6597H121.5V53.6597ZM121.5 52.4126V49.4126H124.5V52.4126H121.5ZM118.211 52.4126V55.4126H115.211V52.4126H118.211ZM118.211 51.1646H115.211V48.1646H118.211V51.1646ZM121.5 51.1646H124.5V54.1646H121.5V51.1646ZM121.5 49.9175V46.9175H124.5V49.9175H121.5ZM118.211 49.9175V52.9175H115.211V49.9175H118.211ZM118.211 48.6694H115.211V45.6694H118.211V48.6694ZM121.5 48.6694H124.5V51.6694H121.5V48.6694ZM121.5 47.4224V44.4224H124.5V47.4224H121.5ZM118.211 47.4224V50.4224H115.211V47.4224H118.211ZM118.211 46.1743H115.211V43.1743H118.211V46.1743ZM121.5 46.1743H124.5V49.1743H121.5V46.1743ZM121.5 44.9272V41.9272H124.5V44.9272H121.5ZM118.211 44.9272V47.9272H115.211V44.9272H118.211ZM118.211 43.6792H115.211V40.6792H118.211V43.6792ZM121.5 43.6792H124.5V46.6792H121.5V43.6792ZM121.5 36.3735L124.5 36.3734V36.3735H121.5ZM115.083 29.9565L115.083 26.9565L115.083 26.9565L115.083 29.9565ZM114.809 29.9565H111.809V26.9565H114.809V29.9565ZM114.809 94.7153V91.7153H115.083V94.7153V97.7153H114.809V94.7153ZM115.083 94.7153L115.083 91.7153C116.97 91.7152 118.5 90.185 118.5 88.2974H121.5H124.5C124.5 93.4979 120.284 97.7151 115.083 97.7153L115.083 94.7153ZM121.5 88.2974H118.5V84.8481H121.5H124.5V88.2974H121.5ZM121.5 84.8481V87.8481H118.211V84.8481V81.8481H121.5V84.8481ZM118.211 84.8481H115.211V83.6011H118.211H121.211V84.8481H118.211ZM118.211 83.6011V80.6011H121.5V83.6011V86.6011H118.211V83.6011ZM121.5 83.6011H118.5V82.353H121.5H124.5V83.6011H121.5ZM121.5 82.353V85.353H118.211V82.353V79.353H121.5V82.353ZM118.211 82.353H115.211V81.106H118.211H121.211V82.353H118.211ZM118.211 81.106V78.106H121.5V81.106V84.106H118.211V81.106ZM121.5 81.106H118.5V79.8579H121.5H124.5V81.106H121.5ZM121.5 79.8579V82.8579H118.211V79.8579V76.8579H121.5V79.8579ZM118.211 79.8579H115.211V78.6108H118.211H121.211V79.8579H118.211ZM118.211 78.6108V75.6108H121.5V78.6108V81.6108H118.211V78.6108ZM121.5 78.6108H118.5V77.3628H121.5H124.5V78.6108H121.5ZM121.5 77.3628V80.3628H118.211V77.3628V74.3628H121.5V77.3628ZM118.211 77.3628H115.211V76.1157H118.211H121.211V77.3628H118.211ZM118.211 76.1157V73.1157H121.5V76.1157V79.1157H118.211V76.1157ZM121.5 76.1157H118.5V74.8677H121.5H124.5V76.1157H121.5ZM121.5 74.8677V77.8677H118.211V74.8677V71.8677H121.5V74.8677ZM118.211 74.8677H115.211V73.6206H118.211H121.211V74.8677H118.211ZM118.211 73.6206V70.6206H121.5V73.6206V76.6206H118.211V73.6206ZM121.5 73.6206H118.5V72.3726H121.5H124.5V73.6206H121.5ZM121.5 72.3726V75.3726H118.211V72.3726V69.3726H121.5V72.3726ZM118.211 72.3726H115.211V71.1255H118.211H121.211V72.3726H118.211ZM118.211 71.1255V68.1255H121.5V71.1255V74.1255H118.211V71.1255ZM121.5 71.1255H118.5V69.8774H121.5H124.5V71.1255H121.5ZM121.5 69.8774V72.8774H118.211V69.8774V66.8774H121.5V69.8774ZM118.211 69.8774H115.211V68.6304H118.211H121.211V69.8774H118.211ZM118.211 68.6304V65.6304H121.5V68.6304V71.6304H118.211V68.6304ZM121.5 68.6304H118.5V67.3823H121.5H124.5V68.6304H121.5ZM121.5 67.3823V70.3823H118.211V67.3823V64.3823H121.5V67.3823ZM118.211 67.3823H115.211V66.1353H118.211H121.211V67.3823H118.211ZM118.211 66.1353V63.1353H121.5V66.1353V69.1353H118.211V66.1353ZM121.5 66.1353H118.5V64.8872H121.5H124.5V66.1353H121.5ZM121.5 64.8872V67.8872H118.211V64.8872V61.8872H121.5V64.8872ZM118.211 64.8872H115.211V63.6401H118.211H121.211V64.8872H118.211ZM118.211 63.6401V60.6401H121.5V63.6401V66.6401H118.211V63.6401ZM121.5 63.6401H118.5V62.3921H121.5H124.5V63.6401H121.5ZM121.5 62.3921V65.3921H118.211V62.3921V59.3921H121.5V62.3921ZM118.211 62.3921H115.211V61.145H118.211H121.211V62.3921H118.211ZM118.211 61.145V58.145H121.5V61.145V64.145H118.211V61.145ZM121.5 61.145H118.5V59.8979H121.5H124.5V61.145H121.5ZM121.5 59.8979V62.8979H118.211V59.8979V56.8979H121.5V59.8979ZM118.211 59.8979H115.211V58.6499H118.211H121.211V59.8979H118.211ZM118.211 58.6499V55.6499H121.5V58.6499V61.6499H118.211V58.6499ZM121.5 58.6499H118.5V57.4028H121.5H124.5V58.6499H121.5ZM121.5 57.4028V60.4028H118.211V57.4028V54.4028H121.5V57.4028ZM118.211 57.4028H115.211V56.1548H118.211H121.211V57.4028H118.211ZM118.211 56.1548V53.1548H121.5V56.1548V59.1548H118.211V56.1548ZM121.5 56.1548H118.5V54.9077H121.5H124.5V56.1548H121.5ZM121.5 54.9077V57.9077H118.211V54.9077V51.9077H121.5V54.9077ZM118.211 54.9077H115.211V53.6597H118.211H121.211V54.9077H118.211ZM118.211 53.6597V50.6597H121.5V53.6597V56.6597H118.211V53.6597ZM121.5 53.6597H118.5V52.4126H121.5H124.5V53.6597H121.5ZM121.5 52.4126V55.4126H118.211V52.4126V49.4126H121.5V52.4126ZM118.211 52.4126H115.211V51.1646H118.211H121.211V52.4126H118.211ZM118.211 51.1646V48.1646H121.5V51.1646V54.1646H118.211V51.1646ZM121.5 51.1646H118.5V49.9175H121.5H124.5V51.1646H121.5ZM121.5 49.9175V52.9175H118.211V49.9175V46.9175H121.5V49.9175ZM118.211 49.9175H115.211V48.6694H118.211H121.211V49.9175H118.211ZM118.211 48.6694V45.6694H121.5V48.6694V51.6694H118.211V48.6694ZM121.5 48.6694H118.5V47.4224H121.5H124.5V48.6694H121.5ZM121.5 47.4224V50.4224H118.211V47.4224V44.4224H121.5V47.4224ZM118.211 47.4224H115.211V46.1743H118.211H121.211V47.4224H118.211ZM118.211 46.1743V43.1743H121.5V46.1743V49.1743H118.211V46.1743ZM121.5 46.1743H118.5V44.9272H121.5H124.5V46.1743H121.5ZM121.5 44.9272V47.9272H118.211V44.9272V41.9272H121.5V44.9272ZM118.211 44.9272H115.211V43.6792H118.211H121.211V44.9272H118.211ZM118.211 43.6792V40.6792H121.5V43.6792V46.6792H118.211V43.6792ZM121.5 43.6792H118.5V36.3735H121.5H124.5V43.6792H121.5ZM121.5 36.3735L118.5 36.3737C118.5 34.4865 116.97 32.9566 115.083 32.9565L115.083 29.9565L115.083 26.9565C120.284 26.9568 124.5 31.1727 124.5 36.3734L121.5 36.3735ZM115.083 29.9565V32.9565H114.809V29.9565V26.9565H115.083V29.9565ZM114.809 29.9565H117.809V94.7153H114.809H111.809V29.9565H114.809Z" fill="#777777" mask="url(#path-3-outside-2_325_675)"/>
<mask id="path-5-inside-3_325_675" fill="white">
<path d="M22.1913 82.0896H105.809V24.7498H114.809V100.462L111.18 104.092H16.8203L13.1913 100.462V24.7498H22.1913V82.0896Z"/>
</mask>
<path d="M22.1913 82.0896H105.809V24.7498H114.809V100.462L111.18 104.092H16.8203L13.1913 100.462V24.7498H22.1913V82.0896Z" fill="#AAAAAA"/>
<path d="M22.1913 82.0896H19.1913V85.0896H22.1913V82.0896ZM105.809 82.0896V85.0896H108.809V82.0896H105.809ZM105.809 24.7498V21.7498H102.809V24.7498H105.809ZM114.809 24.7498H117.809V21.7498H114.809V24.7498ZM114.809 100.462L116.93 102.583L117.809 101.704V100.462H114.809ZM111.18 104.092V107.092H112.423L113.301 106.213L111.18 104.092ZM16.8203 104.092L14.6986 106.213L15.5774 107.092H16.8203V104.092ZM13.1913 100.462H10.1913V101.704L11.0697 102.583L13.1913 100.462ZM13.1913 24.7498V21.7498H10.1913V24.7498H13.1913ZM22.1913 24.7498H25.1913V21.7498H22.1913V24.7498ZM22.1913 82.0896V85.0896H105.809V82.0896V79.0896H22.1913V82.0896ZM105.809 82.0896H108.809V24.7498H105.809H102.809V82.0896H105.809ZM105.809 24.7498V27.7498H114.809V24.7498V21.7498H105.809V24.7498ZM114.809 24.7498H111.809V100.462H114.809H117.809V24.7498H114.809ZM114.809 100.462L112.687 98.3406L109.058 101.971L111.18 104.092L113.301 106.213L116.93 102.583L114.809 100.462ZM111.18 104.092V101.092H16.8203V104.092V107.092H111.18V104.092ZM16.8203 104.092L18.9419 101.971L15.313 98.3406L13.1913 100.462L11.0697 102.583L14.6986 106.213L16.8203 104.092ZM13.1913 100.462H16.1913V24.7498H13.1913H10.1913V100.462H13.1913ZM13.1913 24.7498V27.7498H22.1913V24.7498V21.7498H13.1913V24.7498ZM22.1913 24.7498H19.1913V82.0896H22.1913H25.1913V24.7498H22.1913Z" fill="#777777" mask="url(#path-5-inside-3_325_675)"/>
<path d="M107.691 28.3572V84.9148C107.691 87.6305 105.49 89.8326 102.774 89.8328H25.6083C22.8927 89.8326 20.6913 87.6305 20.6913 84.9148V28.3572H107.691Z" fill="#AAAAAA" stroke="#777777" stroke-width="3"/>
<line x1="13.1913" y1="98.0018" x2="113.82" y2="98.0018" stroke="#777777" stroke-width="2"/>
<path d="M83.5883 49.2349C85.6961 49.2349 87.4589 50.4243 88.2504 52.1372L88.3012 52.2515L93.9008 68.9546L67.976 68.9517C66.392 68.9516 64.9509 68.3408 63.8715 67.3452L63.7573 67.2378V68.9507L54.5004 68.9517C52.1731 68.9515 50.1558 67.6379 49.1489 65.7173L49.0854 65.5943L49.06 65.6675C48.2248 67.4203 45.8523 68.889 43.4291 68.9487L43.2846 68.9507L34.4819 68.9517V61.0122L36.4516 61.0152C35.2887 59.8026 34.4995 58.1663 34.4995 56.3618C34.504 52.5109 37.5243 49.5869 41.2338 49.52L41.3696 49.5191L50.1059 49.5112V51.4116C51.1687 50.2919 52.6738 49.5667 54.3344 49.521L54.5014 49.5191H63.7709L63.767 51.2066C64.813 50.1867 66.2208 49.5555 67.7895 49.5132L67.9584 49.5112L77.0112 49.5161L77.019 57.7261L78.8852 52.2857C79.6214 50.5186 81.4427 49.2349 83.5883 49.2349ZM41.2377 53.7593C39.8494 53.8107 38.7358 54.955 38.7358 56.353C38.7359 57.7523 39.8493 58.8917 41.2377 58.9429L43.3764 58.9722C45.068 59.0269 46.4203 60.4084 46.4203 62.105C46.4202 63.8026 45.0681 65.1869 43.3764 65.2417L43.2719 65.2437H35.8452L35.8422 67.5933L43.2651 67.5855L43.3959 67.5845C46.372 67.5148 48.7631 65.0883 48.7631 62.1089C48.763 59.1237 46.3719 56.6972 43.3959 56.6275L43.2651 56.6265L41.3373 56.6362L41.2963 56.6333C41.1637 56.6134 41.062 56.4982 41.062 56.3589C41.062 56.2195 41.1637 56.1034 41.2963 56.0835L41.3373 56.0806L48.7465 56.0825L48.7495 53.7583H41.3354L41.2377 53.7593ZM54.393 50.8833C51.9136 50.9479 49.9168 52.9378 49.852 55.4087L49.851 55.5327V62.9224L49.852 63.0464C49.917 65.5173 51.9137 67.509 54.393 67.5737L54.517 67.5757L62.4077 67.5786L62.4057 65.2554L54.517 65.2583L54.4233 65.2564C53.2107 65.209 52.2271 64.2513 52.1772 63.02L52.1752 62.9214V55.5064L52.1772 55.4146C52.2258 54.2272 53.2088 53.2603 54.4213 53.2114L54.517 53.2095L62.4409 53.2105V50.8814H54.517L54.393 50.8833ZM83.4643 50.6118C81.8803 50.6595 80.5529 51.6296 80.0952 52.9556L80.061 53.0611L75.6606 65.9673V56.6275H69.0659V58.9487H73.3295V65.2525H67.9926L67.8989 65.2505C66.6907 65.2022 65.7121 64.2274 65.6625 63.0181L65.6606 62.9214V55.5318L65.6625 55.438C65.7106 54.2275 66.6821 53.2593 67.8911 53.2105L67.9868 53.2085H75.6606V50.8814H67.9692L67.8442 50.8833C65.3659 50.9481 63.3699 52.9379 63.3051 55.4087L63.3032 55.5327V62.9224L63.3051 63.0454C63.3705 65.5166 65.384 67.5091 67.8627 67.5737L67.9868 67.5757L75.6606 67.5786V67.5767H77.5805L82.3862 53.4663L82.4194 53.3941C82.6301 52.9657 83.07 52.6694 83.5825 52.6694C84.092 52.6695 84.534 52.9653 84.7465 53.3911L84.7797 53.4634L88.7807 65.2525H82.5844V67.5767H92.0141L87.1098 53.0659L87.0766 52.9634C86.6226 51.6358 85.2928 50.661 83.7114 50.6118L83.5864 50.6099L83.4643 50.6118ZM83.5883 53.2095C83.2783 53.2095 83.0131 53.3953 82.895 53.6607L82.8715 53.7183L78.1606 67.5767H80.9106L82.5795 62.6538L82.5756 64.7232H88.0297L84.3051 53.7183C84.2044 53.4226 83.9205 53.2096 83.5883 53.2095ZM67.9868 53.7534L67.8979 53.7554C66.986 53.8002 66.2542 54.532 66.2094 55.4439L66.2075 55.5327V62.9214L66.2104 63.0112C66.2554 63.9249 66.9862 64.6595 67.8979 64.7046L67.9868 64.7075H72.7797V59.4995H69.0717V61.8286H70.4477L70.4526 62.3755H69.0825L69.0268 62.3726C68.7717 62.3461 68.5676 62.1387 68.5414 61.8833L68.5385 61.8286L68.5258 56.6265C68.5268 56.5807 68.5476 56.1305 69.0043 56.0767L69.0756 56.0718H75.6635L75.6606 53.7515L67.9868 53.7534ZM41.2055 50.8833C38.2324 50.9529 35.8393 53.3766 35.8393 56.3589C35.8393 59.3412 38.2324 61.7658 41.2055 61.8355L41.3373 61.8374L43.2543 61.8403L43.2934 61.8433C43.4213 61.8623 43.5228 61.9726 43.5229 62.1089C43.5229 62.2429 43.4214 62.3536 43.2934 62.3726L43.2543 62.3755L35.8422 62.3814L35.8452 64.6978H43.2719L43.3696 64.6958C44.762 64.6447 45.8733 63.5058 45.8735 62.105C45.8735 60.7056 44.7622 59.5671 43.3696 59.5161L41.2319 59.4917C39.543 59.4371 38.1891 58.0538 38.1889 56.353C38.1889 54.6568 39.5429 53.2729 41.2319 53.2183L41.3354 53.2163L48.7495 53.2153L48.7465 50.8814H41.3373L41.2055 50.8833ZM52.7397 62.9224C52.7399 63.8723 53.4892 64.6459 54.4291 64.6919L54.517 64.6939L62.4057 64.6909L62.4077 62.3775H55.6108C55.5672 62.3762 55.1135 62.3525 55.0639 61.8999L55.06 61.8286H60.7543V59.5025H52.7397V62.9224ZM82.5795 62.6538L82.5815 62.1343H82.7563L82.5795 62.6538ZM84.4037 62.1343H82.7563L83.5834 59.6958L84.4037 62.1343ZM54.518 53.7534C53.5637 53.7534 52.7915 54.5025 52.7455 55.4439L52.7426 55.5327L52.7397 58.9497H60.7553V56.6275H55.06L55.0639 56.5806C55.0796 56.4559 55.1579 56.1248 55.5434 56.0884L55.6147 56.0855H62.4409V53.7534H54.518Z" fill="#777777"/>
<path fill-rule="evenodd" clip-rule="evenodd" d="M91.3989 52.2492C91.0894 52.5572 90.6762 52.7285 90.2373 52.7285C89.8 52.7285 89.3884 52.5572 89.0802 52.2494C88.7679 51.9384 88.5966 51.5282 88.5966 51.0895C88.5966 50.188 89.3343 49.4561 90.2373 49.4561C90.6762 49.4561 91.0894 49.6274 91.3989 49.9338C91.7083 50.2448 91.8812 50.6536 91.8812 51.0893C91.8812 51.528 91.7083 51.9382 91.3989 52.2492ZM89.2409 50.0945C88.9721 50.3605 88.8279 50.715 88.8279 51.0891C88.8279 51.4663 88.9719 51.8194 89.2409 52.0852C89.5082 52.3512 89.8628 52.497 90.2371 52.497C91.0171 52.497 91.6513 51.8659 91.6513 51.0891C91.6513 50.715 91.5039 50.3605 91.2379 50.0945C90.9703 49.8287 90.6158 49.6843 90.2371 49.6843C89.863 49.6843 89.5084 49.8285 89.2409 50.0945Z" fill="#777777"/>
<path fill-rule="evenodd" clip-rule="evenodd" d="M89.8165 51.9996V51.2274H90.2853L90.7827 51.9996H91.0697L90.5587 51.2123C90.5614 51.2117 90.5645 51.2111 90.5677 51.2105C90.6677 51.1904 90.9916 51.1254 90.9916 50.715C90.9916 50.5466 90.9344 50.3949 90.7977 50.2941C90.6588 50.1893 90.5126 50.1876 90.2659 50.1847C90.2618 50.1847 90.2577 50.1846 90.2536 50.1846H89.579V51.9996H89.8165ZM90.2989 51.0276H89.8167V50.386H90.2855C90.2903 50.386 90.2952 50.386 90.3 50.386C90.4335 50.3859 90.5484 50.3858 90.64 50.4627C90.7438 50.5469 90.7483 50.6685 90.7483 50.7166C90.7483 50.8487 90.6883 50.9689 90.52 51.0095C90.4479 51.0276 90.3758 51.0276 90.2989 51.0276Z" fill="#777777"/>
</svg>
