<svg xmlns="http://www.w3.org/2000/svg" width="570" height="225" fill="none" viewBox="0 0 570 225">
  <g class="mainlogo__mainlogo">
    <path fill="#000" d="m540.165 2.468.434.434 10.744 10.678 3.136 3.114.008.01 14.586 14.584-9.925 22.96-16.558 2.325.423.442.001.002.92.962.909.952.578.602.61.638.455.477.405.421.005.006.472.493.016.017.052.053.673.705.496.518.412.431.269.28.168.177.029.03.052.053.336.35.002.003.22.23.011.01.01.011.142.15.036.036.395.414.005.007 3.162 3.293-21.916 53.175-65.34 9.183-4.957-4.958-1.874-1.871-9.376-9.368-.003-.002-14.46-14.46 9.461-24.017 14.613-2.055-.967-1.07-.014-.013-.116-.129-1.092-1.206-.012-.013-.117-.129-2.674-2.955-.006-.007-.006-.005-.62-.69-.062-.061-.117-.13-2.663-2.944-4.61.649-29.843 72.195-25.282 3.55.001.001-44.173 6.21-14.002-14.003-13.694-17.77-15.313 37.618-34.146 4.796-.658-.656-.319.794-64.006 8.998-13.682-13.682-.067-.066-.063-.067-6.697-7.064-.54-.569-1.392-1.467-.002-.002-3.086-3.256-.08-.08-.063-.066-1.988-2.095-2.967-2.967-25.943 3.647-15.508 37.666-35.294 4.959-1.032 1.033v-.735l-.193.469-65.342 9.184-4.509-4.509-1.997-1.995-2.687-2.685-2.69-2.687c-.75-.751-1.453-1.454-2.066-2.065l-1.13-1.128-.002-.002-.83-.83-.283-.284-.015-.014-14.46-14.459 9.46-24.019 14.614-2.054-1.087-1.201-.01-.011-1.082-1.196-.022-.021-.117-.13-2.674-2.955-.007-.008-.008-.008-.626-.697-.052-.052-.117-.13-3.901-4.311 22.25-54.085 65.132-9.155 3.998 3.967.01.01.947.947 3.614 3.591 5.098 5.06.009.01.009.01.753.751.567.564 7.421-18.059 63.38-8.91 13.682 13.68.087.09.002.001.065.068.235.243.937.972 7.379-18.2 65.174-9.16 2.552 2.551.109.107.756.734.573.556.005.004 1.994 1.939.173.173 8.246 8.026 7.015-17.1 64.96-9.13 13.756 13.758.052.054.088.092.126.134.12.127.029.029.047.05.072.073.053.054.052.055.221.23h.001l.071.076 7.573-17.86 86.101-12.103 1.202 1.202.599-1.453L537.697 0l2.468 2.468Zm-62.67 13.062-3.067 7.455-6.161-6.159-78.722 11.066-10.177 24.002-2.394-2.504-.048-.048-1.143-1.194-.385-.403-.054-.056-.417-.438-1.218-1.273-.044-.043-.867-.908-.027-.026-.492-.514-.178-.188-.155-.162-.22-.23-.052-.052-.108-.113-.051-.053-.036-.038-.159-.167-.094-.1-.088-.091-11.235-11.236-57.525 8.084-9.469 23.084-6.037-6.035-.057-.055-.029-.03-.935-.908-8.568-8.338-.205-.204-3.474-3.375-.083-.084L215.8 52.31l-9.91 24.445-3.431-3.56-.108-.108-4.878-5.062-.299-.308-11.213-11.212-55.949 7.865-9.887 24.058-5.624-5.624-2.361-2.347-.768-.769-8.716-8.654-.953-.953-1.533-1.521-57.719 8.113-19.044 46.291.939 1.036.06.06.75.834 2.673 2.956.02.02 1.2 1.325.012.011 4.377 4.842.811.894.01.01.928 1.028 4.17 4.169-23.997 3.374-6.282 15.951 11.213 11.212 1.128 1.127 1.13 1.128 2.07 2.068.063.063 2.625 2.623 2.686 2.685 4.04 4.038 57.915-8.14 3.05-7.401 5.592 5.592 27.877-3.917 15.509-37.665 41.525-5.837-2.683 6.618.018.018 2.06 2.17.076.076 11.786 12.429 11.215 11.216 56.545-7.949 2.764-6.856 5.673 5.669 26.701-3.751 18.386-45.166 20.854 27.06 11.214 11.215 28.861-4.057-24.344-31.867 11.777-1.656 17.533-43.013 5.83 5.83 9.142-1.286-24.483 59.839 11.217 11.213 26.502-3.721 29.842-72.195 18.757-2.637-2.292 5.574.939 1.036.059.06.75.833 2.674 2.955.021.02 1.2 1.328.01.01 1.706 1.885.01.011 3.472 3.84.019.02.918 1.017 4.171 4.17-23.996 3.374-6.282 15.95 18.229 18.222a5038.414 5038.414 0 0 0 4.236 4.232l2.491 2.491 57.914-8.139 18.65-45.246-.024-.025-.337-.353-.026-.027-.219-.231-.556-.58-.026-.027-.492-.513-.419-.438-1.166-1.22-.024-.023-.519-.544-2.048-2.138-.915-.959-.916-.957-1.187-1.24-.024-.024-.838-.875-.025-.026-2.105-2.2-.514-.536-.338-.353-.219-.23-.024-.024-.219-.23-.254-.267-.048-.048-.044-.046-.013-.015-4.176-4.177 26.354-3.704 6.479-14.985-11.214-11.215-13.883-13.794-.449-.449-57.72 8.112ZM196.059 147.014l-.021-.021-.857-.904.878.925Zm43.304-27.44-14.711 2.068 16.11-39.831 15.003-2.11-16.402 39.873Zm133.844-15.504.639.639-.953.133-.006.017-1.52 3.73-3.91.549 3.463 4.533 16.894-41.293-.529.075-.846-.846-13.232 32.463Zm-204.719-9.824-14.149 1.987.823-2.193 14.315-2.01-.989 2.216ZM111.847 80.23l.607.607-1.07-1.065.463.457Zm357.833-7.182.029.032.237.263.631.696-.018-.019-.892-.984.013.012Zm-267.485-10.21.005.005.011.011-.016-.015Zm83.558-6.437-.107-.104-8.4-8.401 8.507 8.505Zm-.991-.964-.029-.027-7.5-7.5 7.529 7.528Z" class="mainlogo__Subtract mainlogo__(Stroke)"/>
    <g class="mainlogo__Subtract">
      <path fill="#3B1B67" d="m546.411 18.547-10.747-10.68-.449-.449-57.72 8.112-3.067 7.455-6.162-6.16-78.721 11.066-10.177 24.002-2.394-2.504-.048-.047-.583-.609-.56-.585-.385-.403-.054-.057-.418-.437-1.217-1.273-.044-.044-.867-.906-.027-.027-.492-.514-.179-.188-.153-.162-.221-.23-.052-.053a7.183 7.183 0 0 0-.108-.112l-.051-.053-.036-.038-.159-.167-.094-.1-.088-.091-11.235-11.236-57.525 8.084-9.468 23.084-6.038-6.036-.056-.054-.03-.03-.936-.907-8.567-8.338-.204-.204-1.959-1.904-.581-.563-.756-.735-.071-.07-.107-.104-.084-.084L215.8 52.31l-9.911 24.445-3.43-3.56-.108-.108-2.234-2.318-1.369-1.42-1.275-1.324-.299-.308-11.213-11.212-55.949 7.865-9.887 24.057-5.624-5.624-2.361-2.346-.768-.768-5.102-5.064-3.613-3.59-.954-.954-1.533-1.521-57.72 8.113-19.042 46.291.938 1.036.06.06.75.834 2.673 2.955.02.021 1.2 1.325.011.011 1.708 1.887 2.67 2.955.81.895.01.009.93 1.027 4.17 4.171-23.997 3.373-6.283 15.95 11.213 11.212 1.128 1.128 1.13 1.128 2.069 2.068.064.064 2.625 2.623 2.687 2.684.029.029 1.97 1.968 2.04 2.041 57.916-8.14 3.049-7.401 5.592 5.592 27.877-3.917 15.509-37.666 41.525-5.836-2.683 6.618.018.017 2.06 2.171.075.075 3.157 3.33 1.393 1.468.54.57 5.551 5.854 1.146 1.209 11.215 11.215 56.544-7.949 2.765-6.856 5.673 5.67 26.701-3.752 18.386-45.166 20.854 27.06 11.214 11.215 28.861-4.057-24.344-31.867 11.778-1.656 17.531-43.013 5.831 5.83 9.142-1.286-24.483 59.839 11.216 11.213 26.502-3.721 29.843-72.195 18.757-2.636-2.292 5.573.938 1.036.06.06.75.833 2.674 2.956.02.02 1.201 1.327.011.01 1.704 1.885.011.01 2.662 2.946.81.896.019.019.918 1.017 4.172 4.17-23.997 3.374-6.282 15.95 11.215 11.215 2.256 2.253 4.757 4.754 2.362 2.359 1.875 1.873 2.491 2.491 57.914-8.139 18.65-45.247-.024-.024-.337-.354-.026-.026-.219-.23-.22-.23-.336-.351-.026-.026-.224-.234-.269-.28-.418-.438-.492-.515-.674-.704-.012-.012-.012-.012-.519-.544-.404-.422-.456-.475-.611-.638-.577-.603-.915-.958-.916-.958-1.188-1.24-.023-.024-.837-.875-.026-.026-.518-.542-.676-.706-.911-.952-.514-.536-.338-.354-.219-.23-.024-.024-.219-.23-.254-.266-.048-.048-.044-.046-.013-.015-4.176-4.177 26.355-3.703 6.478-14.986-11.214-11.214-3.136-3.115ZM273.605 44.28l11.157 11.158-.028-.028-11.129-11.13Zm.934.909L285.753 56.4l-.108-.105-11.106-11.107ZM111.384 79.773l.463.456.607.608-1.07-1.064Zm84.654 67.22-1.989-2.097 1.132 1.192.877.926-.02-.021ZM35.504 135.152l-.881-.974a926.48 926.48 0 0 0 .9.992l-.01-.009-.01-.009Zm189.148-13.51 16.109-39.831 15.004-2.11-16.402 39.874-14.711 2.067Zm-70.313-25.409.823-2.193 14.314-2.01-.987 2.216-14.15 1.987Zm316.219-22.212-.891-.985.013.012.029.032.237.262.631.697-.019-.018Z"/>
      <path fill="#3B1B67" fill-rule="evenodd" d="M35.513 135.161a.408.408 0 0 1 .01.009l-.01-.009Z" clip-rule="evenodd"/>
    </g>
    <g class="mainlogo__Vector">
      <path fill="#fff" fill-rule="evenodd" d="m273.521 44.197 1.598 1.555 10.153 9.881 1.598 1.556-33.57 83.225-56.54 7.946-5.308-5.595-3.324-3.504-5.307-5.595 32.982-81.358 57.718-8.111Zm-65.571 79.792 31.411-4.415 21.988-53.445-31.804 4.47-21.595 53.39Z" clip-rule="evenodd"/>
      <path fill="#fff" d="m372.619 45.345-2.98-3.114-5.929-6.195-2.98-3.114-.829-.865-57.521 8.084-40.639 99.086 26.7-3.752 29.448-72.336 25.129-3.532-3.141 7.579-14.135 1.986-11.387 27.57 24.54 31.84 28.859-4.055-24.344-31.868 11.78-1.655 18.257-44.793-.828-.866Zm95.651-28.519L389.545 27.89l-10.993 25.93 25.914-3.642-30.037 73.41 26.503-3.724 29.841-72.194 26.306-3.697 11.191-27.146Zm73.047-3.343-6.102-6.065-57.718 8.112-19.043 46.29 4.423 4.888 2.933 3.24 4.423 4.888 32.982-4.635-3.927 10.464-23.558 3.31 2.552-5.512-27.877 3.917-6.283 15.95 7.016 7.01 6.727 6.721 57.914-8.14 18.65-45.244-.828-.866-2.98-3.114-5.929-6.195-2.98-3.114-.829-.866-30.626 4.304 4.712-10.574 22.969-3.228-2.552 5.513 27.681-3.89 6.479-14.987-8.229-8.177ZM106.273 74.624l-6.103-6.064-57.718 8.111-19.042 46.291 4.422 4.887 2.933 3.241 4.424 4.887 32.981-4.635-3.926 10.464-23.558 3.311 2.552-5.513-27.878 3.918-6.282 15.95a238217.876 238217.876 0 0 0 13.742 13.73l57.915-8.139 18.65-45.245-.828-.866-2.98-3.114-5.93-6.195-2.98-3.114-.828-.865-30.626 4.304 4.712-10.575 22.97-3.228-2.553 5.513 27.681-3.89 6.479-14.986-8.229-8.178Z"/>
      <path fill="#fff" fill-rule="evenodd" d="m185.962 56.502 2.941 3.052 8.253 8.563 2.941 3.052-18.061 43.575-49.277 6.926-15.509 37.666-27.877 3.918 40.638-98.888 55.951-7.864Zm-47.902 42.02 30.43-4.276 7.067-15.862-31.607 4.442-5.89 15.697Z" clip-rule="evenodd"/>
    </g>
    <g class="mainlogo__Subtract">
      <path fill="#2B98DB" d="m80.733 165.062-57.914 8.14-6.726-6.722-6.282-6.276 77.382-10.814-6.46 15.672Zm36.516-5.726-27.877 3.918 6.177-15.031 27.88-3.897-6.18 15.01Zm-29.173-12.089L9.57 158.219l4.578-11.621 27.638-3.863-1.101 2.382 23.558-3.31.874-2.332 27.763-3.879-4.804 11.651Zm165.223-6.833-56.54 7.946-5.308-5.595-3.324-3.504-3.33-3.511 74.587-10.423-6.085 15.087Zm-128.987 1.77-27.883 3.896 4.787-11.649 27.892-3.899-4.796 11.652Zm-81.527-1.607-27.797 3.884.371-.94 27.877-3.917-.45.973Zm245.654-5.102-26.699 3.753 6.191-15.095 26.641-3.724-6.133 15.066ZM95.575 115.838l2.98 3.114.829.866-5.621 13.635-27.846 3.891 2.252-6.002-32.981 4.636s-2.04-2.256-4.423-4.888l-2.933-3.24-4.424-4.888.723-1.76 67.545-9.438 3.9 4.074Zm164.672 7.35-77.141 10.779a80.05 80.05 0 0 0-.286-.301l4.572-11.278 22.474-3.141-1.917 4.741 31.411-4.414 1.942-4.72 23.639-3.304-4.694 11.638Zm-78.212-8.444-49.276 6.926-2.768 6.72-27.894 3.898 9.583-23.32 77.221-10.791-6.866 16.567Zm185.718 9.782-28.859 4.056-9.997-12.97 28.956-4.046 9.9 12.96Zm33.178-4.663-26.503 3.726 6.221-15.209 26.562-3.712-6.28 15.195Zm-105.488-1.594-26.634 3.721 4.777-11.648 26.598-3.717-4.741 11.644Zm-84.711-1.163-22.472 3.141 9.445-23.3 22.45-3.138-9.423 23.297Zm-104.46-42.482 8.229 8.178-6.479 14.986-27.681 3.89 2.553-5.513-22.97 3.229-4.712 10.574 30.626-4.304.829.865 2.98 3.115.324.338-64.958 9.079 17.438-42.39 57.719-8.111 6.102 6.064Zm250.187 35.118-28.967 4.048-7.639-9.913 29.026-4.057 7.58 9.922Zm-90.655-.332-23.621 3.301 9.594-23.321 23.423-3.274-9.396 23.294Zm249.974-5.489-57.915 8.14-6.726-6.721-5.98-5.975 76.93-10.75-6.309 15.306Zm-214.723.563-26.59 3.716 9.563-23.317 26.515-3.705-9.488 23.306Z"/>
      <path fill="#2B98DB" fill-rule="evenodd" d="m188.902 59.555 8.252 8.561 2.942 3.053-10.307 24.864-77.228 10.793 17.449-42.46 55.951-7.864 2.941 3.053Zm-44.954 23.271-5.888 15.697 30.428-4.277 7.069-15.862-31.609 4.442Z" clip-rule="evenodd"/>
      <path fill="#2B98DB" d="m408.097 102.525-26.571 3.713 4.766-11.646 26.622-3.72-4.817 11.653Zm-52.909-11.521-11.779 1.655 4.076 5.337-29.038 4.058-4.093-5.31 7.055-17.085 40.723-5.691-6.944 17.036Zm167.783-4.531-78.501 10.97 4.577-11.62 27.613-3.86-.931 2.013 23.558-3.311.737-1.967 27.749-3.878-4.802 11.653ZM275.118 45.752l10.153 9.882 1.598 1.556-10.806 26.787-23.404 3.27 8.689-21.118-31.804 4.47-8.523 21.07-22.448 3.137 17.229-42.497 57.718-8.113 1.598 1.556ZM413.8 88.728l-26.632 3.722 9.539-23.313 26.735-3.737-9.642 23.328Zm63.859-8.923-27.77 3.88.514-1.304 27.878-3.918-.622 1.342Zm-116.93-46.883 2.98 3.114 5.929 6.195 2.98 3.115.828.865-10.441 25.616-40.711 5.69 3.446-8.345 14.136-1.986 3.141-7.579-25.129 3.532-6.473 15.897-26.509 3.705 17.473-42.6 57.521-8.084.829.865ZM530.62 54.697l2.98 3.113.829.867-5.773 14-27.832 3.89 2.39-6.367-32.983 4.636-4.422-4.887-2.933-3.241-4.423-4.888.572-1.392 67.986-9.501 3.609 3.77Zm-73.542-10.723-26.307 3.697-6.443 15.586-26.745 3.738 6.882-16.817-25.914 3.642 10.994-25.93 78.724-11.064-11.191 27.148Zm84.238-30.491 8.229 8.177-6.479 14.987-27.68 3.89 2.552-5.514-22.97 3.229-4.711 10.574 30.625-4.303.829.865 2.979 3.114.617.643-65.401 9.14 17.59-42.756 57.718-8.111 6.102 6.065Z"/>
    </g>
    <path fill="#fff" d="M21.906 224.023c1.65-.234 3.279-.834 4.774-1.757a13.123 13.123 0 0 0 3.817-3.453l-2.844-2.52a9.59 9.59 0 0 1-2.544 2.413 7.652 7.652 0 0 1-3.083 1.147 6.33 6.33 0 0 1-2.629-.14 5.662 5.662 0 0 1-2.235-1.193 5.59 5.59 0 0 1-1.433-2.019 6.764 6.764 0 0 1-.523-2.704 8.14 8.14 0 0 1 .509-2.882c.322-.876.8-1.703 1.407-2.432a7.943 7.943 0 0 1 2.14-1.791 7.26 7.26 0 0 1 2.648-.915 6.466 6.466 0 0 1 3.163.308 6.312 6.312 0 0 1 2.604 1.823l2.934-3.423a8.522 8.522 0 0 0-3.83-2.426c-1.529-.508-3.192-.651-4.875-.417a12.356 12.356 0 0 0-4.386 1.485 13.573 13.573 0 0 0-3.545 2.859 13.208 13.208 0 0 0-2.365 3.887 12.695 12.695 0 0 0-.868 4.536 10.855 10.855 0 0 0 .854 4.297 8.86 8.86 0 0 0 2.349 3.209 9.256 9.256 0 0 0 3.547 1.861c1.4.389 2.901.473 4.414.247Zm56.722-7.939a12.23 12.23 0 0 0 4.37-1.483 13.082 13.082 0 0 0 3.513-2.866 13.3 13.3 0 0 0 2.354-3.903c.573-1.471.868-3.006.868-4.515s-.295-2.961-.868-4.271a9.077 9.077 0 0 0-2.354-3.242 8.916 8.916 0 0 0-3.514-1.877c-2.793-.766-5.917-.327-8.71 1.224a13.078 13.078 0 0 0-3.514 2.865 13.3 13.3 0 0 0-2.354 3.904 12.48 12.48 0 0 0-.867 4.514c0 1.509.295 2.961.867 4.271a9.069 9.069 0 0 0 2.354 3.242 8.919 8.919 0 0 0 3.514 1.878c1.376.389 2.851.478 4.34.259Zm0-4.128a5.994 5.994 0 0 1-2.562-.159 5.36 5.36 0 0 1-2.152-1.212 5.783 5.783 0 0 1-1.392-2.055c-.678-1.708-.678-3.706 0-5.604a8.435 8.435 0 0 1 1.392-2.43 7.899 7.899 0 0 1 2.152-1.818 7.037 7.037 0 0 1 2.562-.878 6.09 6.09 0 0 1 2.634.173 5.26 5.26 0 0 1 2.11 1.194 5.812 5.812 0 0 1 1.391 2.038c.679 1.708.679 3.706 0 5.604a8.392 8.392 0 0 1-1.392 2.447 7.787 7.787 0 0 1-2.11 1.786 7.15 7.15 0 0 1-2.633.914Zm65.79-5.459v-3.973l-11.465 1.612v-17.759l-4.337.61v21.728l15.802-2.218Zm54.718-7.69v-3.973l-11.465 1.612v-17.759l-4.34.61v21.728l15.805-2.218Zm55.135-7.749v-3.911l-11.882 1.67v-5.154l7.753-1.09v-3.788l-7.753 1.09v-4.963l11.763-1.653v-3.911l-16.106 2.264v21.728l16.225-2.282Zm48.133-6.454c1.649-.235 3.279-.834 4.774-1.758a13.122 13.122 0 0 0 3.816-3.453l-2.844-2.518a9.597 9.597 0 0 1-2.544 2.413 7.657 7.657 0 0 1-3.083 1.147 6.346 6.346 0 0 1-2.629-.14 5.657 5.657 0 0 1-2.234-1.194 5.575 5.575 0 0 1-1.433-2.018 6.77 6.77 0 0 1-.525-2.704 8.16 8.16 0 0 1 .51-2.882c.322-.877.8-1.703 1.406-2.432a7.93 7.93 0 0 1 2.14-1.791 7.246 7.246 0 0 1 2.649-.915 6.46 6.46 0 0 1 3.173.313 6.295 6.295 0 0 1 2.604 1.823l2.934-3.424a8.525 8.525 0 0 0-3.831-2.426c-1.528-.508-3.19-.65-4.873-.417a12.359 12.359 0 0 0-4.386 1.485 13.593 13.593 0 0 0-3.547 2.858 13.207 13.207 0 0 0-2.366 3.887 12.709 12.709 0 0 0-.868 4.536 10.86 10.86 0 0 0 .854 4.297 8.867 8.867 0 0 0 2.349 3.209 9.263 9.263 0 0 0 3.547 1.861c1.399.386 2.897.469 4.407.243Zm57.411-8.379v-17.758l7.032-.989v-3.974l-18.438 2.591v3.974l7.065-.992v17.755l4.341-.607Zm49.717-6.987v-21.729l-4.339.61v21.729l4.339-.61Zm49.989-6.684a12.218 12.218 0 0 0 4.37-1.483 13.102 13.102 0 0 0 3.513-2.865 13.304 13.304 0 0 0 2.354-3.904c.572-1.471.867-3.006.867-4.514a10.66 10.66 0 0 0-.867-4.271 9.061 9.061 0 0 0-2.354-3.242 8.919 8.919 0 0 0-3.513-1.878c-2.794-.765-5.917-.326-8.71 1.224a13.3 13.3 0 0 0-5.866 6.769 12.466 12.466 0 0 0-.868 4.515c0 1.509.295 2.961.868 4.27a9.066 9.066 0 0 0 2.354 3.241 8.93 8.93 0 0 0 3.512 1.879c1.376.389 2.851.476 4.34.257v.002Zm0-4.128c-.9.135-1.792.075-2.619-.175a5.297 5.297 0 0 1-2.095-1.196 5.753 5.753 0 0 1-1.393-2.055c-.679-1.708-.679-3.705 0-5.604a8.432 8.432 0 0 1 1.393-2.43 7.823 7.823 0 0 1 2.095-1.784 7.039 7.039 0 0 1 2.619-.912 6.07 6.07 0 0 1 2.633.174 5.278 5.278 0 0 1 2.111 1.193 5.813 5.813 0 0 1 1.391 2.039c.68 1.708.68 3.705 0 5.604a8.393 8.393 0 0 1-1.391 2.446 7.8 7.8 0 0 1-2.111 1.787 7.142 7.142 0 0 1-2.633.91v.003Zm54.087-3.814v-14.534l10.686 13.033 3.831-.539v-21.728l-4.07.572v14.062l-10.417-12.598-4.132.58v21.729l4.102-.577Z" class="mainlogo__Vector"/>
  </g>
</svg>
