<svg width="26" height="40" viewBox="0 0 26 40" fill="none" xmlns="http://www.w3.org/2000/svg">
<g clip-path="url(#clip0_3321_3001)">
<path fill-rule="evenodd" clip-rule="evenodd" d="M0 40V6.957H6.934V0H19.066V6.957H26V40H0ZM14.319 21.63H17.341C17.702 21.63 18.027 21.884 18.129 22.263C18.279 22.645 18.183 23.077 17.913 23.345L10.973 30.193C10.667 30.492 10.22 30.517 9.892 30.248C9.565 29.979 9.445 29.49 9.605 29.071L11.69 23.587H8.643C8.306 23.587 7.983 23.333 7.856 22.954C7.728 22.572 7.824 22.141 8.096 21.872L15.034 15.024C15.341 14.723 15.788 14.701 16.116 14.97C16.444 15.238 16.563 15.726 16.403 16.146L14.319 21.63Z" fill="white"/>
</g>
<defs>
<clipPath id="clip0_3321_3001">
<rect width="26" height="40" fill="white"/>
</clipPath>
</defs>
</svg>
