<svg width="40" height="26" viewBox="0 0 40 26" fill="none" xmlns="http://www.w3.org/2000/svg">
<g clip-path="url(#clip0_3373_3968)">
<path d="M40 16.1328C40 17.2374 39.1046 18.1328 38 18.1328L35.043 18.1328L35.043 20C35.043 22.2091 33.2521 24 31.043 24L4 24C1.79086 24 -8.83369e-07 22.2091 -7.86805e-07 20L-1.74853e-07 6C1.94561e-07 3.79086 1.79086 2 4 2L31.043 2C33.2521 2 35.043 3.79086 35.043 6L35.043 7.86719L38 7.86719C39.1046 7.86719 40 8.76264 40 9.86719L40 16.1328ZM26.6641 15.4434C27.2767 14.5243 27.0284 13.2827 26.1094 12.6699L18.1094 7.33594C17.4958 6.92688 16.7069 6.88852 16.0566 7.23633C15.4063 7.58436 15 8.26239 15 9L15 13.2627L10.1094 10.002C9.19036 9.38927 7.94868 9.63765 7.33594 10.5566C6.72327 11.4757 6.97164 12.7173 7.89062 13.3301L15.8906 18.6641C16.5042 19.0731 17.2931 19.1115 17.9434 18.7637C18.5937 18.4156 19 17.7376 19 17L19 12.7373L23.8906 15.998C24.8096 16.6107 26.0513 16.3624 26.6641 15.4434Z" fill="white"/>
</g>
<defs>
<clipPath id="clip0_3373_3968">
<rect width="26" height="40" fill="white" transform="translate(40) rotate(90)"/>
</clipPath>
</defs>
</svg>
