<svg width="24" height="26" viewBox="0 0 24 26" fill="none" xmlns="http://www.w3.org/2000/svg">
<path d="M11.986 4C7.329 4 3.104 5.98 0 9.198L3.045 12.464C5.463 9.971 8.627 8.601 11.986 8.601C15.348 8.601 18.516 9.974 20.935 12.473L24 9.228C20.894 5.993 16.657 4 11.986 4Z" fill="white"/>
<path d="M4.419 13.937L7.467 17.207C8.672 16.015 10.254 15.289 11.986 15.289C13.707 15.289 15.281 16.007 16.483 17.186L19.552 13.936C17.564 11.921 14.907 10.689 11.986 10.689C9.065 10.689 6.406 11.921 4.419 13.937Z" fill="white"/>
<path d="M8.94 18.787L11.936 22L15 18.756C14.18 17.997 13.13 17.541 11.986 17.541C10.826 17.541 9.764 18.009 8.94 18.787Z" fill="white"/>
</svg>
