<svg width="24" height="26" viewBox="0 0 24 26" fill="none" xmlns="http://www.w3.org/2000/svg">
<path d="M20.096 10.332C21.521 10.332 24 11.541 24 12.999C24 14.499 21.521 15.666 20.096 15.666H15.238L11.05 22.995C10.813 23.412 10.371 23.666 9.892 23.666H7.55C7.108 23.666 6.788 23.241 6.908 22.816L8.95 15.666H4.667L2.867 18.066C2.742 18.232 2.542 18.332 2.333 18.332H0.583C0.258 18.332 0 18.07 0 17.749C0 17.695 0.008 17.641 0.021 17.587L1.333 12.999L0.021 8.41203C0.004 8.35703 0 8.30303 0 8.24903C0 7.92403 0.263 7.66603 0.583 7.66603H2.333C2.542 7.66603 2.742 7.76603 2.867 7.93203L4.667 10.332H8.954L6.913 3.18203C6.788 2.75703 7.108 2.33203 7.55 2.33203H9.892C10.371 2.33203 10.813 2.59103 11.05 3.00303L15.238 10.332H20.096Z" fill="white"/>
</svg>
