<svg xmlns="http://www.w3.org/2000/svg" width="464" height="211" fill="none" viewBox="0 0 464 211">
  <defs>
    <linearGradient id="mainlogo__a" x1="223.151" x2="200.046" y1="166.524" y2="71.387" class="mainlogo__a" gradientUnits="userSpaceOnUse">
      <stop stop-color="#3A1225"/>
      <stop offset="1" stop-color="#802120"/>
    </linearGradient>
    <linearGradient id="mainlogo__b" x1="234.248" x2="250.84" y1="32.115" y2="138.22" class="mainlogo__b" gradientUnits="userSpaceOnUse">
      <stop stop-color="#FDE543"/>
      <stop offset="1" stop-color="#EB1511"/>
    </linearGradient>
    <linearGradient id="mainlogo__c" x1="234.248" x2="250.84" y1="32.115" y2="138.22" class="mainlogo__c" gradientUnits="userSpaceOnUse">
      <stop stop-color="#FDE543"/>
      <stop offset="1" stop-color="#EB1511"/>
    </linearGradient>
    <linearGradient id="mainlogo__d" x1="234.248" x2="250.84" y1="32.115" y2="138.22" class="mainlogo__d" gradientUnits="userSpaceOnUse">
      <stop stop-color="#FDE543"/>
      <stop offset="1" stop-color="#EB1511"/>
    </linearGradient>
    <linearGradient id="mainlogo__e" x1="234.248" x2="250.84" y1="32.115" y2="138.22" class="mainlogo__e" gradientUnits="userSpaceOnUse">
      <stop stop-color="#FDE543"/>
      <stop offset="1" stop-color="#EB1511"/>
    </linearGradient>
    <linearGradient id="mainlogo__f" x1="234.248" x2="250.84" y1="32.115" y2="138.22" class="mainlogo__f" gradientUnits="userSpaceOnUse">
      <stop stop-color="#FDE543"/>
      <stop offset="1" stop-color="#EB1511"/>
    </linearGradient>
    <linearGradient id="mainlogo__g" x1="234.248" x2="250.84" y1="32.115" y2="138.22" class="mainlogo__g" gradientUnits="userSpaceOnUse">
      <stop stop-color="#FDE543"/>
      <stop offset="1" stop-color="#EB1511"/>
    </linearGradient>
    <linearGradient id="mainlogo__h" x1="234.248" x2="250.84" y1="32.115" y2="138.22" class="mainlogo__h" gradientUnits="userSpaceOnUse">
      <stop stop-color="#FDE543"/>
      <stop offset="1" stop-color="#EB1511"/>
    </linearGradient>
    <linearGradient id="mainlogo__i" x1="234.248" x2="250.84" y1="32.115" y2="138.22" class="mainlogo__i" gradientUnits="userSpaceOnUse">
      <stop stop-color="#FDE543"/>
      <stop offset="1" stop-color="#EB1511"/>
    </linearGradient>
  </defs>
  <g class="mainlogo__mainlogo">
    <g class="mainlogo__Group mainlogo__593">
      <path fill="url(#mainlogo__a)" fill-rule="evenodd" d="m446.91 18.59-8.443 9.713v75.331l8.443 8.442-33.674 4.732-10.246-10.246 8.393-9.658.001-19.977-9.389-9.389v41.222l8.442 8.443-25.079 3.524-19.633 2.759-10.247-10.248-6.588-12.382v16.52l2.415 4.453 3.23 3.231-30.876 4.339-3.406-3.407-1.047 1.206-5.595 3.613-22.434 3.152-5.643-2.03-1.055-.916-.008-.007-.686-.595-.016-.016-1.037-.901-10.247-10.247-2.796-5.305-.001-13.99-2.625-2.258-19.632 2.76v30.022l8.443 8.444-33.673 4.734-10.248-10.247 8.395-9.658.001-56.32-11.055 1.553v66.913l8.394 8.393-33.624 4.726-10.247-10.247 8.393-9.657.001-56.322-.994.14-5.598 6.438-2.316-2.316v65l2.382 4.474 3.215 3.217-.03-.026.012.011.018.015-25.234 3.544-8.441-8.44v6.436l2.797 2.798-25.231 3.546-29.743 4.18-5.598-2.04-.013-.013-1.037-.901-.348-.302a71.44 71.44 0 0 0-.346-.301l-1.052-.915-10.248-10.247-2.846-5.302v-22.122l-5.31 3.427-16.834 2.369v34.002l2.383 4.478 3.211 3.212-28.029 3.939-10.247-10.246 2.798-3.219 2.797-6.046.004-78.623-5.599-5.599 39.27-5.518 5.595 2.038 3.176 3.176-.004-.008-3.172-3.168 2.8 2.48 7.16 7.16v-4.291l-8.395-8.396 30.876-4.339 10.252 10.248-5.644 6.493v59.098l9.385-1.319 5.644-6.445 4.466 4.466v-61.75l2.797-6.044 5.642-6.495 5.597-3.613 16.838-2.365 5.595 2.039.037.036 3.106 2.727 2.808 2.809-.005-.009-2.803-2.8 2.453 2.15 5.162 5.163V46.47l97.094-13.645 8.209 8.208 1.812-3.915 2.798-3.269 5.648-3.62 22.433-3.152 5.596 2.038.039.04 2.756 2.443 7.25 7.25v-7.59l-5.593-5.592 42.067-5.912 5.644 2.032.015.015 2.78 2.465 10.248 10.247.746 1.401v-9.32l-8.396-8.394 33.674-4.732 7.17 7.165 1.011-2.175-5.381-5.381 33.673-4.732L446.91 18.59Zm-301.685 96.23v26.142l.991-1.14.004-25.143-.995.141Zm228.942-32.175-2.798 3.217-5.644 3.62 7.63 14.337 1.556-1.789.001-21-.745 1.615Zm-77.395-23.128v43.139l.994-1.135-.001-43.147-.993 1.143ZM145.225 80.816v5.313l.994-.139.001-6.32-.995 1.146Zm-95.81 7.814v7.316l3.623-7.826-3.622.51Zm198.016-25.004v8.142l9.385-1.32 5.645-6.444 7.227 7.223v-8.103l-.036-.03-2.588-2.227-19.633 2.759Zm101.457-14.26.002 13.019 5.213-11.26-1.232-2.318-3.983.56Z" class="mainlogo__Union" clip-rule="evenodd"/>
      <path fill="#000" d="m457.672 18.216-11.328 13.031v69.126l17.304 17.304-36.474 5.125.002.002-55.905 7.855.002.002-50.388 7.08-1.163 1.164v-2.308l-.217-.217-3.077 1.988-26.082 3.664-8.861-3.187-1.112-.965-.001-.001-.005-.004-.016-.015-.063-.054-.231-.201-.743-.644-.685-.596-.212-.182-.024-.025-1.032-.895-.196-.196-11.09-11.089-4.258-8.083-.002-9.506-6.507.915v19.916l17.303 17.303-38.186 5.37.001.001L219.427 152l-1.163 1.164v-1l-22.631 3.18.003.003-103.437 14.535-9.082-3.311-1.053-1.051-.829-.721-.356-.31-.337-.294-.734-.638-.229-.198-.078-.068-.004-.004-.212-.183-11.266-11.266-4.332-8.068v-12.364l-6.395.901V157.5l.907 1.705 13.549 13.549-47.557 6.684-18.214-18.213 6.88-7.917 1.6-3.458.003-73.63L0 61.763l46.432-6.527h-.001l50.401-7.084 14.693 14.686 2.74-5.916 7.109-8.184 7.993-5.159 20.502-2.88 7.441 2.711.188.069v-3.853L265.257 24.48l4.139 4.138.663-.772 8.074-5.175 26.082-3.666h.004l45.564-6.402-.002-.002 53.201-7.477.002.003L439.457 0l18.215 18.216Zm-54.681-5.139 5.382 5.381-1.012 2.175-7.17-7.165-33.672 4.732 8.395 8.395v9.32l-.746-1.402-10.248-10.247-2.78-2.465-.015-.015-5.644-2.032-42.067 5.912 5.593 5.593v7.589l-7.25-7.25-2.756-2.444-.039-.039-5.597-2.039-22.432 3.154-5.648 3.62-2.799 3.267-1.811 3.916-8.209-8.209-97.094 13.647v14.414l-5.162-5.163-2.453-2.15 2.804 2.8.004.008-2.808-2.809-3.107-2.727-.036-.036-5.595-2.04-16.838 2.367-5.597 3.612-5.643 6.495-2.796 6.043v61.75l-4.466-4.466-5.644 6.446-9.386 1.319V73.236l5.645-6.493-10.253-10.248-30.875 4.339 8.395 8.395v4.291l-7.16-7.159-2.8-2.48 3.171 3.168.005.009-3.175-3.176-5.596-2.04-39.27 5.52 5.599 5.598-.004 78.623-2.798 6.046-2.797 3.219 10.247 10.246 28.029-3.94-3.211-3.211-2.383-4.478v-34.002l16.835-2.369 5.308-3.427v22.122l2.847 5.302 10.248 10.247a3979.613 3979.613 0 0 0 1.745 1.518l1.038.901.013.014 5.598 2.04 54.973-7.727-2.796-2.798v-6.436l8.441 8.44 25.234-3.545-.018-.014-.012-.011.03.025-3.215-3.216-2.382-4.474v-65l2.316 2.316 5.598-6.437.994-.141v56.322l-8.395 9.656 10.247 10.248 33.625-4.726-8.393-8.394V68.986l11.054-1.552-.001 56.321-8.395 9.657 10.248 10.247 33.673-4.734-8.443-8.444v-30.022l19.632-2.76 2.625 2.259.001 13.989 2.795 5.305 10.247 10.247 1.038.9.016.017.687.595.007.007 1.054.916 5.644 2.03 22.434-3.152 5.595-3.614 1.047-1.205 3.406 3.406 30.876-4.338-3.23-3.231-2.415-4.453v-16.521l6.588 12.383 10.248 10.248 44.711-6.284-8.442-8.442V67.539l9.389 9.389v19.977l-8.395 9.657 10.246 10.248 33.675-4.733-8.442-8.442V28.304l8.442-9.712-10.247-10.247-33.674 4.732ZM146.218 139.822l-.991 1.141V114.82l.995-.139-.004 25.141Zm-35.981-67.913-3.713 4.27v44.606l3.747-4.277V71.87l-.034.04Zm264.676 30.122-1.557 1.789-7.628-14.337 5.643-3.62 2.798-3.218.745-1.615-.001 21.001Zm-77.144-.51-.995 1.136V59.519l.994-1.143.001 43.145ZM49.418 95.946v-7.315l3.622-.51-3.622 7.825Zm96.803-9.955-.994.14v-5.315l.995-1.144-.001 6.32Zm123.433-22.896.036.03v8.103l-7.227-7.223-5.645 6.444-9.385 1.32v-8.142l19.633-2.759 2.588 2.227Zm84.45-11.968-5.212 11.259-.002-13.018 3.982-.56 1.232 2.319Z" class="mainlogo__Union mainlogo__(Stroke)"/>
      <g class="mainlogo__Platform">
        <path fill="url(#mainlogo__b)" d="m47.61 99.851 5.596-12.088-5.596-10.565-8.443 1.187v22.653l8.443-1.187Zm-30.876 60.997 2.798-3.219 2.798-6.044v-79.31l-5.596-4.914 39.27-5.52 5.595 2.04 2.798 2.482 2.847 5.25v28.304l-2.847 6.101-2.798 3.218-5.595 3.612-16.837 2.366v34.005l2.798 5.257 2.798 2.433-28.029 3.939Z"/>
        <path fill="url(#mainlogo__c)" d="m82.802 151.563-5.596-2.039-2.798-2.433-2.847-5.3v-73.61l-8.394-7.346 30.876-4.34-5.645 6.495v70.784l19.634-2.759 5.645-6.445v22.653l-30.875 4.34Z"/>
        <path fill="url(#mainlogo__d)" d="M146.218 85.993V68.99l-5.645-4.858-5.595 6.437v17.003l11.24-1.58Zm-33.673 61.389 2.798-3.218 2.798-6.044V67.286l2.798-6.044 5.645-6.494 5.596-3.612 16.836-2.366 5.596 2.039 5.596 4.914 2.847 5.25v70.834l2.798 5.258 2.798 2.432-25.231 3.546 2.798-3.219v-36.829l-11.24 1.58v36.829l2.798 2.432-25.231 3.546Z"/>
        <path fill="url(#mainlogo__e)" d="m173.816 138.771 8.394-9.656V61.107l-11.241 1.58-5.596 6.437V46.471l50.51-7.099v22.653l-5.645-4.857-11.192 1.573v68.008l8.394 7.297-33.624 4.725Z"/>
        <path fill="url(#mainlogo__f)" d="m211.953 133.412 8.394-9.656V47.271l-8.394-7.346 50.51-7.1V55.48l-5.645-4.858-19.635 2.76v19.827l19.635-2.76 5.645-6.443V92.31l-5.645-4.858-19.635 2.76v31.178l8.443 7.29-33.673 4.733Z"/>
        <path fill="url(#mainlogo__g)" d="m292.122 107.968 5.645-6.444V47.692l-5.645-4.858-5.596 6.438v53.831l5.596 4.865Zm-11.192 15.749-5.645-2.032-2.798-2.432-2.798-5.307V43.162l2.798-6.044 2.798-3.269 5.645-3.618 22.433-3.153 5.596 2.039 2.797 2.482 2.798 5.257v70.785l-2.798 6.093-2.797 3.219-5.596 3.612-22.433 3.152Z"/>
        <path fill="url(#mainlogo__h)" d="m347.084 66.289 7.02-15.163-7.02-13.19-8.443 1.186v28.353l8.443-1.186Zm-33.673 52.864 2.798-3.219 2.798-6.044V30.58l-5.596-4.914 42.067-5.913 5.645 2.033 2.798 2.481 5.596 10.516V60.26l-5.596 12.138-2.798 3.218-5.645 3.62 14.039 26.38 5.596 4.864-19.635 2.759-16.837-31.638v25.528l2.847 5.251 2.798 2.432-30.875 4.34Z"/>
        <path fill="url(#mainlogo__i)" d="m366.518 111.689 8.394-9.656V25.548l-8.394-7.346 33.673-4.733-5.645 6.494 7.02 13.14 7.019-15.113-5.596-4.914 33.673-4.732-8.442 9.712v76.485l8.442 7.29-33.673 4.732 8.394-9.656V45.901l-9.817 21.207-9.818-18.448v51.007l8.443 7.289-33.673 4.733Z"/>
      </g>
    </g>
    <path fill="#fff" d="M26.016 210.719a10.353 10.353 0 0 0 3.97-1.461 10.897 10.897 0 0 0 3.173-2.871l-2.364-2.095a7.97 7.97 0 0 1-2.115 2.006 6.362 6.362 0 0 1-2.564.954 5.286 5.286 0 0 1-2.186-.116 4.713 4.713 0 0 1-1.858-.993 4.647 4.647 0 0 1-1.191-1.678 5.623 5.623 0 0 1-.435-2.248 6.78 6.78 0 0 1 .423-2.396 6.908 6.908 0 0 1 1.17-2.023 6.607 6.607 0 0 1 1.779-1.489 6.061 6.061 0 0 1 2.202-.761 5.38 5.38 0 0 1 2.63.257 5.247 5.247 0 0 1 2.165 1.516l2.44-2.847a7.088 7.088 0 0 0-3.186-2.017c-1.27-.423-2.653-.541-4.053-.347-1.25.167-2.49.587-3.646 1.235a11.301 11.301 0 0 0-2.948 2.377c-.84.96-1.509 2.059-1.966 3.232a10.548 10.548 0 0 0-.722 3.771 9.023 9.023 0 0 0 .71 3.573 7.377 7.377 0 0 0 1.953 2.669 7.706 7.706 0 0 0 2.95 1.547 8.834 8.834 0 0 0 3.67.205Zm47.16-6.601a10.173 10.173 0 0 0 3.634-1.233 11.06 11.06 0 0 0 4.878-5.628 10.37 10.37 0 0 0 .722-3.754 8.854 8.854 0 0 0-.721-3.551 7.542 7.542 0 0 0-1.957-2.695 7.41 7.41 0 0 0-2.922-1.561c-2.323-.637-4.92-.272-7.243 1.017a11.06 11.06 0 0 0-4.879 5.628 10.383 10.383 0 0 0-.72 3.754c0 1.255.245 2.462.721 3.551a7.535 7.535 0 0 0 1.957 2.695 7.412 7.412 0 0 0 2.921 1.562 8.628 8.628 0 0 0 3.61.215Zm0-3.432a4.986 4.986 0 0 1-2.129-.132 4.453 4.453 0 0 1-1.79-1.008 4.814 4.814 0 0 1-1.156-1.709c-.565-1.42-.565-3.08 0-4.659a7.03 7.03 0 0 1 1.157-2.021 6.584 6.584 0 0 1 1.789-1.511 5.841 5.841 0 0 1 2.13-.73 5.042 5.042 0 0 1 2.19.144 4.4 4.4 0 0 1 1.754.992c.498.469.89 1.044 1.157 1.696.564 1.42.564 3.08 0 4.659a6.982 6.982 0 0 1-1.157 2.034 6.48 6.48 0 0 1-1.754 1.485c-.692.4-1.438.66-2.19.76Zm54.702-4.539v-3.303l-9.533 1.34v-14.765l-3.606.506v18.066l13.139-1.844Zm45.495-6.394v-3.303l-9.533 1.34v-14.765l-3.609.507v18.066l13.142-1.845Zm45.841-6.442v-3.252l-9.88 1.388v-4.285l6.447-.906v-3.15l-6.447.906v-4.125l9.781-1.375v-3.252l-13.391 1.882v18.066l13.49-1.897Zm40.019-5.367a10.347 10.347 0 0 0 3.969-1.461 10.9 10.9 0 0 0 3.174-2.872l-2.366-2.093a7.99 7.99 0 0 1-2.115 2.007 6.378 6.378 0 0 1-2.563.953 5.268 5.268 0 0 1-2.186-.116 4.708 4.708 0 0 1-1.857-.993 4.637 4.637 0 0 1-1.192-1.678 5.629 5.629 0 0 1-.436-2.248 6.761 6.761 0 0 1 .424-2.396 6.889 6.889 0 0 1 1.169-2.022 6.575 6.575 0 0 1 1.779-1.489 6.051 6.051 0 0 1 2.202-.762 5.381 5.381 0 0 1 2.639.261 5.233 5.233 0 0 1 2.165 1.516l2.439-2.847a7.09 7.09 0 0 0-3.185-2.017 8.938 8.938 0 0 0-4.052-.347c-1.25.167-2.489.587-3.646 1.235a11.291 11.291 0 0 0-2.949 2.376c-.841.96-1.51 2.058-1.968 3.232a10.554 10.554 0 0 0-.721 3.771 9.018 9.018 0 0 0 .71 3.573 7.37 7.37 0 0 0 1.953 2.668 7.708 7.708 0 0 0 2.949 1.547 8.823 8.823 0 0 0 3.664.202Zm47.734-6.966v-14.765l5.847-.822v-3.304l-15.33 2.154v3.304l5.873-.825v14.763l3.61-.505Zm41.337-5.81v-18.065l-3.608.507v18.065l3.608-.507Zm41.562-5.556a10.154 10.154 0 0 0 3.633-1.234 10.88 10.88 0 0 0 2.922-2.382 11.063 11.063 0 0 0 1.957-3.246c.476-1.223.721-2.499.721-3.753a8.853 8.853 0 0 0-.721-3.551 7.552 7.552 0 0 0-1.957-2.696 7.425 7.425 0 0 0-2.922-1.561c-2.322-.636-4.919-.271-7.241 1.018a11.058 11.058 0 0 0-4.877 5.628 10.35 10.35 0 0 0-.723 3.753c0 1.255.246 2.462.723 3.551a7.557 7.557 0 0 0 1.957 2.695 7.432 7.432 0 0 0 2.92 1.562 8.622 8.622 0 0 0 3.608.213v.003Zm0-3.433a4.967 4.967 0 0 1-2.177-.146 4.382 4.382 0 0 1-1.742-.994 4.779 4.779 0 0 1-1.158-1.708c-.565-1.42-.565-3.081 0-4.659a6.992 6.992 0 0 1 1.158-2.021 6.495 6.495 0 0 1 1.742-1.484 5.859 5.859 0 0 1 2.177-.758 5.067 5.067 0 0 1 2.189.144 4.387 4.387 0 0 1 1.755.993 4.808 4.808 0 0 1 1.157 1.695c.565 1.42.565 3.081 0 4.659a6.951 6.951 0 0 1-1.157 2.034 6.47 6.47 0 0 1-1.755 1.486c-.692.4-1.437.658-2.189.757v.002Zm44.97-3.171v-12.084l8.885 10.836 3.185-.448v-18.066l-3.384.476v11.691l-8.661-10.474-3.435.483v18.066l3.41-.48Z" class="mainlogo__Vector"/>
  </g>
</svg>
